<svg xmlns="http://www.w3.org/2000/svg" width="36" height="35" viewBox="0 0 36 35" fill="none">
  <path d="M33.0542 23.5903V3.09518C33.0267 1.38028 31.6829 0 29.9964 0H8.96163C4.42286 0.0697117 0.775391 3.84807 0.775391 8.4769C0.775391 10.0384 1.18676 11.3769 1.81753 12.548C2.3523 13.524 3.18876 14.4442 4.01149 15.1274C4.2446 15.3225 4.13491 15.2389 4.84794 15.6851C5.83523 16.2985 6.95963 16.6052 6.95963 16.6052L6.94592 28.8605C6.97335 29.4461 7.0282 30.0037 7.17903 30.5196C7.64525 32.2485 8.8245 33.573 10.4289 34.2143C11.1008 34.4792 11.8549 34.6604 12.664 34.6745L29.4615 34.7302C32.8073 34.7302 35.5223 31.9697 35.5223 28.5537C35.536 26.5321 34.5488 24.7197 33.0542 23.5903Z" fill="#FFEEDA"/>
  <path d="M33.4657 28.7091C33.3972 30.898 31.6283 32.6547 29.4618 32.6547L17.9023 32.6129C18.821 31.5254 19.3832 30.1172 19.3832 28.5836C19.3832 26.1716 17.9709 24.5125 17.9709 24.5125H29.4754C31.6831 24.5125 33.4794 26.3388 33.4794 28.5836L33.4657 28.7091Z" fill="#EBC28E"/>
  <path d="M5.10848 13.4014C3.77838 12.1187 2.84595 10.4596 2.84595 8.49374V8.28461C2.95565 4.92452 5.67068 2.21972 8.97535 2.12212H30.01C30.5586 2.15001 30.9974 2.5404 30.9974 3.11202V21.209C31.4772 21.2928 31.7103 21.3625 32.1766 21.5298C32.5469 21.6693 33.0542 21.962 33.0542 21.962V3.11202C33.0267 1.39712 31.6829 0.0168457 29.9964 0.0168457H8.96163C4.42286 0.0865558 0.775391 3.86491 0.775391 8.49374C0.775391 11.1846 1.98208 13.4851 3.95664 15.1023C4.09377 15.214 4.21717 15.3534 4.57371 15.3534C5.19076 15.3534 5.62955 14.8514 5.60212 14.3077C5.5884 13.8476 5.39644 13.6803 5.10848 13.4014Z" fill="#151F34"/>
  <path d="M29.4605 22.3933H12.9647C11.854 22.4072 10.9627 23.3136 10.9627 24.4428V26.8547C10.9901 27.9703 11.9225 28.9183 13.0332 28.9183H14.2536V26.8547H13.0332V24.4986C13.0332 24.4986 13.3349 24.4986 13.7051 24.4986C15.7894 24.4986 17.3252 26.4644 17.3252 28.5697C17.3252 30.438 15.6523 32.8221 12.855 32.627C10.373 32.4596 9.02923 30.2149 9.02923 28.5697V8.13035C9.02923 7.21016 8.28877 6.45728 7.38376 6.45728H5.73828V8.54863H6.95868V28.5836C6.89012 32.6549 9.81084 34.7044 12.855 34.7044L29.4743 34.7601C32.8201 34.7601 35.5351 31.9996 35.5351 28.5836C35.5351 25.1678 32.8064 22.3933 29.4605 22.3933ZM33.4645 28.7092C33.396 30.8981 31.627 32.6549 29.4605 32.6549L17.9011 32.6129C18.8199 31.5255 19.3821 30.1172 19.3821 28.5836C19.3821 26.1717 17.9696 24.5125 17.9696 24.5125H29.4743C31.6819 24.5125 33.4783 26.339 33.4783 28.5836L33.4645 28.7092Z" fill="#151F34"/>
  <path d="M25.0113 8.92288H12.5742V6.83154H25.0113C25.5734 6.83154 26.0398 7.29163 26.0398 7.87721C26.0398 8.44883 25.5873 8.92288 25.0113 8.92288Z" fill="#151F34"/>
  <path d="M25.0113 18.7653H12.5742V16.6738H25.0113C25.5734 16.6738 26.0398 17.134 26.0398 17.7196C26.0398 18.2912 25.5873 18.7653 25.0113 18.7653Z" fill="#151F34"/>
  <path d="M27.2053 13.844H12.5742V11.7527H27.1915C27.7538 11.7527 28.22 12.2128 28.22 12.7984C28.2336 13.37 27.7675 13.844 27.2053 13.844Z" fill="#151F34"/>
</svg>
