<svg width="156" height="159" viewBox="0 0 156 159" fill="none" xmlns="http://www.w3.org/2000/svg">
<path opacity="0.3" fill-rule="evenodd" clip-rule="evenodd" d="M155.67 77C155.67 119.526 120.971 154 78.1691 154C35.3668 154 0.669922 119.526 0.669922 77C0.669922 34.4743 35.3668 0 78.1691 0C120.971 0 155.67 34.4743 155.67 77Z" fill="#FFD6A7"/>
<path fill-rule="evenodd" clip-rule="evenodd" d="M10.3929 50.0706L10.4425 50.3334C10.9662 53.0527 11.3445 53.139 12.4015 55.2993L12.4818 55.4536C13.1707 56.7068 14.864 58.2313 15.5251 59.6797C16.6536 58.4641 18.8724 57.5217 19.8723 56.5019C21.6099 54.7299 21.967 54.8248 23.4295 52.171L23.3413 52.4465C22.6112 54.8897 22.7325 58.736 21.5543 60.9007L21.4426 61.1018C19.975 63.6899 17.584 65.8712 15.2186 66.2761C15.1319 67.6707 15.0773 69.0677 15.0542 70.4653C15.4365 69.4863 15.9196 68.5833 16.4964 68.0073C19.1991 65.3078 23.2745 64.6698 26.0411 62.0367L26.0139 62.3498C25.207 70.6806 18.158 74.4997 15.0986 75.2407C15.1439 76.5363 15.2167 77.8318 15.3167 79.1255L15.367 79.7482C15.4241 80.4279 15.4888 81.1071 15.561 81.7854C15.7223 81.0442 15.904 80.3821 16.1101 79.8342L16.1834 79.6616C16.7202 78.5271 18.2075 77.7052 19.7182 76.9551L20.1712 76.7319C21.2254 76.2152 22.2457 75.7219 22.9139 75.1694C25.3248 73.175 25.7597 73.3399 27.9419 70.2032L27.8095 70.503C26.5613 73.4676 26.2129 78.333 24.4452 80.9031L24.3018 81.1081C22.2254 84.0308 19.1355 86.3826 16.2287 86.7714C16.6355 89.2983 17.1463 91.8088 17.7579 94.2951C18.121 92.4973 18.9118 90.0482 20.0724 88.8895C22.8452 86.1193 27.0262 85.4653 29.8657 82.7644L29.8385 83.0788C28.9815 91.9572 21.2156 95.8442 18.2967 96.3848C19.0199 99.0589 19.8596 101.702 20.813 104.304C21.0331 102.607 21.3216 101.047 21.7183 99.9938L21.7878 99.8322C22.61 98.1352 25.9768 97.2753 27.4097 96.091C29.4266 94.4229 29.7907 94.5608 31.6158 91.9368L31.4973 92.2059C30.4591 94.6878 30.1661 98.7425 28.6902 100.887L28.5541 101.082C26.7149 103.659 23.9346 105.702 21.3901 105.837C22.2981 108.19 23.3001 110.506 24.3931 112.779C24.7384 111.51 25.2931 110.12 26.0341 109.38C28.2782 107.138 31.661 106.609 33.9579 104.423L33.9322 104.714C33.3059 111.022 28.364 114.206 25.5861 115.172C26.5634 117.065 27.605 118.924 28.7093 120.745C28.87 119.677 29.071 118.719 29.3294 118.032L29.3934 117.885C30.0635 116.544 32.7277 115.862 33.8634 114.922C35.4704 113.593 35.7608 113.704 37.2149 111.613L37.1053 111.864C36.2907 113.844 36.0525 117.046 34.884 118.744L34.7553 118.927C33.4774 120.707 31.6363 122.161 29.8472 122.574C31.7558 125.561 33.8365 128.439 36.0825 131.184L36.1352 131.254C36.8589 132.278 35.4383 133.668 34.6089 132.654L34.0008 131.903C31.834 129.2 29.8129 126.384 27.9537 123.464C26.1436 124.595 23.2827 124.668 20.7706 123.936L20.5053 123.85C18.3732 123.083 16.0165 120.585 14.037 119.625L14.2635 119.689C16.0989 120.2 16.6563 120.162 17.7873 120.123L17.9384 120.118C18.2476 120.108 18.6012 120.1 19.0323 120.103L19.2243 120.099C19.8146 120.07 20.5317 119.899 21.2708 119.728C22.0844 119.54 22.9244 119.352 23.6546 119.352L23.8247 119.356C24.2165 119.372 24.5715 119.451 24.8669 119.622L25.0481 119.731C25.3959 119.949 25.775 120.227 26.1738 120.55L25.8303 119.961L25.3526 119.121L24.95 118.398C24.2422 117.112 23.5638 115.809 22.9155 114.492C20.336 115.4 13.3776 115.955 8.89435 110.162L9.23273 110.216C10.699 110.422 12.1646 110.234 13.6285 110.047C14.6393 109.918 15.6502 109.788 16.6597 109.788L16.9713 109.792C17.4906 109.807 18.01 109.859 18.5293 109.966L18.6685 109.999C19.6113 110.242 20.6987 110.974 21.6223 111.756C20.566 109.431 19.6025 107.064 18.7336 104.663C16.1654 105.675 12.4754 104.898 9.52033 103.166C7.04419 101.715 4.86194 97.7161 2.66302 95.8728L2.91581 96.018C5.6236 97.5596 5.9708 97.3003 8.58517 97.978L8.7639 98.0199C10.7795 98.4473 14.3956 97.7859 15.8218 99.1743L15.9742 99.3271C16.4871 99.855 17.0406 100.561 17.6084 101.368C16.8972 99.1611 16.2658 96.9293 15.7157 94.6785C13.0358 95.2521 3.81767 94.3307 0 85.7272L0.4156 85.902C1.94841 86.5064 3.57691 86.7186 5.21014 86.9051L6.10092 87.0065C7.88122 87.213 9.64746 87.4682 11.2815 88.248L11.4177 88.3166C12.8235 89.0615 14.2842 90.9557 15.2036 92.4656L15.125 92.1106L14.9576 91.3187C14.6464 89.8147 14.3709 88.3036 14.1315 86.7869C10.9087 87.168 7.02609 84.8386 4.42772 81.6962C2.37122 79.208 1.61115 74.14 0 71.3442L0.189359 71.5693C2.47463 74.2685 2.93722 74.1216 5.44763 75.8503L5.60585 75.9544C7.56535 77.1872 11.6629 77.878 12.6356 79.9014L12.7333 80.1115C13.0234 80.757 13.2943 81.5525 13.5471 82.4409C13.2822 80.0663 13.1065 77.6816 13.0214 75.2937C10.0735 74.6952 2.51667 70.8127 1.84112 62.0367L2.16599 62.3319C4.91913 64.7219 8.78708 65.4116 11.3858 68.0073L11.4904 68.1165C12.0936 68.7726 12.5896 69.7835 12.9693 70.8445C12.9884 69.1254 13.0562 67.4068 13.1721 65.691C11.2854 64.3639 9.90559 61.6784 9.41542 58.9458C8.96382 56.4277 10.4159 52.6288 10.3929 50.0706Z" fill="url(#paint0_linear_12285_9049)"/>
<path fill-rule="evenodd" clip-rule="evenodd" d="M145.144 50.0706L145.147 50.3598C145.224 52.9085 146.515 56.521 146.093 58.9458L146.052 59.1717C145.543 61.8254 144.226 64.4005 142.444 65.6917C142.558 67.4035 142.625 69.1184 142.646 70.8337C143.034 69.7161 143.549 68.655 144.18 68.0073C146.805 65.3077 150.763 64.6697 153.452 62.0367L153.426 62.3498C152.621 70.9021 145.425 74.6996 142.593 75.2933C142.546 76.7142 142.465 78.1346 142.353 79.5529L142.283 80.3782C142.223 81.0669 142.155 81.7549 142.08 82.4421C142.352 81.4538 142.647 80.581 142.965 79.9013L143.05 79.7357C144.16 77.785 148.164 77.1147 149.948 75.8503C152.453 74.0748 152.859 74.2778 155.24 71.3441L155.086 71.6311C154.481 72.8079 153.997 74.3223 153.501 75.8639L153.251 76.6355C152.621 78.563 151.937 80.452 150.938 81.6961L150.779 81.8916C148.257 84.9351 144.576 87.1609 141.51 86.786C141.217 88.6921 140.87 90.5885 140.467 92.4725C141.388 90.9125 142.873 88.9395 144.281 88.2479C145.868 87.4681 147.584 87.2129 149.313 87.0064L150.178 86.9051C151.909 86.7016 153.634 86.4676 155.24 85.7271L155.12 85.9974C151.341 94.3543 142.539 95.2468 139.968 94.6776C139.435 96.9316 138.822 99.1658 138.13 101.375C138.738 100.484 139.33 99.7164 139.87 99.1742L140.002 99.0536C141.514 97.7865 145.04 98.4741 146.899 97.9779C149.517 97.2796 149.796 97.5761 152.653 95.8727L152.424 96.0782C150.365 97.9984 148.311 101.766 145.991 103.166L145.779 103.291C142.944 104.936 139.472 105.651 137.037 104.662C136.683 105.67 136.311 106.672 135.923 107.668L135.627 108.419C135.177 109.547 134.707 110.665 134.217 111.774C135.162 110.945 136.288 110.17 137.241 109.966C137.845 109.837 138.45 109.788 139.056 109.788L139.476 109.796C140.317 109.825 141.159 109.936 142.001 110.046L142.329 110.09C143.751 110.275 145.175 110.43 146.6 110.161L146.44 110.37C142.073 115.95 135.434 115.387 132.966 114.487C131.975 116.558 130.911 118.59 129.778 120.581C130.246 120.187 130.688 119.857 131.083 119.622C131.411 119.426 131.814 119.352 132.26 119.352L132.501 119.359C133.151 119.394 133.873 119.56 134.575 119.728L134.814 119.785C135.527 119.954 136.206 120.108 136.751 120.103L136.955 120.102C137.349 120.103 137.673 120.113 137.96 120.123L138.089 120.127C139.146 120.165 139.717 120.18 141.603 119.625L141.361 119.752C139.409 120.835 137.114 123.32 135.062 123.936L134.839 124.001C132.449 124.664 129.778 124.56 128.073 123.457C126.105 126.647 123.952 129.718 121.62 132.653L121.564 132.719C120.733 133.626 119.389 132.189 120.188 131.184L120.764 130.451C122.726 127.928 124.553 125.296 126.242 122.573C124.446 122.145 122.596 120.605 121.352 118.744C120.168 116.972 119.967 113.563 119.088 111.613L119.225 111.815C120.521 113.698 120.834 113.638 122.343 114.922L122.467 115.022C123.672 115.944 126.24 116.642 126.748 118.031L126.816 118.23C127.035 118.897 127.208 119.772 127.349 120.738C127.893 119.818 128.42 118.887 128.931 117.947L129.23 117.394C129.623 116.658 130.007 115.917 130.381 115.171C127.642 114.19 122.738 110.923 122.251 104.423L122.548 104.699C124.767 106.658 127.865 107.235 129.949 109.379L130.044 109.482C130.716 110.242 131.222 111.563 131.542 112.773C132.603 110.501 133.574 108.186 134.455 105.836C131.922 105.694 129.151 103.554 127.369 100.887C125.882 98.663 125.631 94.3847 124.527 91.9367L124.685 92.1677C126.324 94.554 126.713 94.4734 128.614 96.0909L128.75 96.201C130.254 97.3661 133.501 98.2432 134.143 99.9937L134.216 100.204C134.563 101.246 134.82 102.706 135.019 104.287C135.942 101.69 136.754 99.0515 137.453 96.3822C134.574 95.8257 126.907 91.8518 126.228 82.7643L126.552 83.0671C129.296 85.5187 133.151 86.2257 135.74 88.8894L135.843 88.9993C136.908 90.1894 137.637 92.5211 137.982 94.2607C138.572 91.7848 139.064 89.285 139.458 86.7689C136.572 86.3636 133.506 83.9141 131.494 80.903C129.717 78.2443 129.416 73.1293 128.096 70.2032L128.26 70.4441C130.24 73.3327 130.7 73.2275 132.981 75.1693L133.125 75.2868C133.772 75.7924 134.694 76.2521 135.645 76.7319L136.085 76.955C137.626 77.7426 139.142 78.6094 139.59 79.8341L139.667 80.0522C139.831 80.5393 139.978 81.1045 140.111 81.726C140.334 79.5704 140.484 77.4057 140.561 75.2376C137.546 74.4805 130.581 70.5741 129.942 62.0367L130.258 62.3319C132.933 64.7219 136.69 65.4116 139.215 68.0073L139.316 68.1164C139.829 68.6907 140.262 69.5367 140.609 70.4502C140.589 69.0579 140.537 67.666 140.455 66.2753C138.098 65.8598 135.715 63.5756 134.301 60.9006C133.113 58.6528 133.286 54.5913 132.479 52.1709L132.605 52.4048C133.923 54.8207 134.298 54.7836 135.935 56.5018L136.057 56.6232C137.076 57.5971 139.105 58.5124 140.159 59.6794C140.827 58.1713 142.584 56.5803 143.193 55.2993C144.252 53.0715 144.609 53.0493 145.144 50.0706Z" fill="url(#paint1_linear_12285_9049)"/>
<path d="M78.3818 126.645C105.814 126.645 128.052 104.407 128.052 76.9749C128.052 49.5431 105.814 27.3049 78.3818 27.3049C50.9499 27.3049 28.7129 49.5431 28.7129 76.9749C28.7129 104.407 50.9499 126.645 78.3818 126.645Z" fill="#C59761" stroke="#7A4300" stroke-width="3"/>
<circle cx="78.5915" cy="77.1844" r="31.3669" fill="white"/>
<path d="M42.5332 99.4423C27.3454 99.4423 15.0332 111.754 15.0332 126.942V129.942C15.0332 145.13 27.3454 157.442 42.5332 157.442H120.533C135.721 157.442 148.033 145.13 148.033 129.942V126.942C148.033 111.754 135.721 99.4423 120.533 99.4423H42.5332Z" fill="#FFF1DE"/>
<path d="M42.5332 99.4423C27.3454 99.4423 15.0332 111.754 15.0332 126.942V129.942C15.0332 145.13 27.3454 157.442 42.5332 157.442H120.533C135.721 157.442 148.033 145.13 148.033 129.942V126.942C148.033 111.754 135.721 99.4423 120.533 99.4423H42.5332Z" stroke="#7A4300" stroke-width="3"/>
<mask id="path-7-outside-1_12285_9049" maskUnits="userSpaceOnUse" x="47.5332" y="16.9423" width="61" height="35" fill="black">
<rect fill="white" x="47.5332" y="16.9423" width="61" height="35"/>
<path d="M60.0932 48.3823C56.8932 48.3823 54.5865 47.6889 53.1732 46.3023C51.7865 44.8889 51.1732 43.0223 51.3332 40.7023C51.3865 40.3556 51.5599 40.1823 51.8532 40.1823H55.9732C56.3199 40.1823 56.4932 40.3556 56.4932 40.7023C56.4932 41.8489 56.7999 42.6489 57.4132 43.1023C58.0532 43.5289 59.0132 43.7423 60.2932 43.7423C61.5199 43.7423 62.4532 43.4756 63.0932 42.9423C63.7599 42.3823 64.0932 41.5823 64.0932 40.5423V39.8623C64.0932 37.8356 62.8265 36.8223 60.2932 36.8223H57.5732C57.2265 36.8223 57.0532 36.6489 57.0532 36.3023V32.9423C57.0532 32.6223 57.2265 32.4623 57.5732 32.4623H59.8532C61.1332 32.4623 62.0665 32.2089 62.6532 31.7023C63.2399 31.1689 63.5332 30.3823 63.5332 29.3423V28.6223C63.5332 27.6889 63.2532 26.9956 62.6932 26.5423C62.1599 26.0889 61.2799 25.8623 60.0532 25.8623C58.8532 25.8623 57.9599 26.1023 57.3732 26.5823C56.8132 27.0623 56.5332 27.7956 56.5332 28.7823C56.5332 29.1289 56.3732 29.3023 56.0532 29.3023H51.8932C51.5732 29.3023 51.4132 29.1289 51.4132 28.7823C51.3865 26.3556 52.1332 24.5023 53.6532 23.2223C55.1732 21.9423 57.4265 21.3023 60.4132 21.3023C63.3465 21.3023 65.5065 21.8889 66.8932 23.0623C68.3065 24.2089 69.0132 25.9023 69.0132 28.1423C69.0132 29.6889 68.6799 30.9956 68.0132 32.0623C67.3732 33.1023 66.4799 33.8489 65.3332 34.3023V34.4223C66.6932 34.8223 67.7332 35.5423 68.4532 36.5823C69.1732 37.5956 69.5332 38.9023 69.5332 40.5023C69.5332 43.0889 68.7199 45.0489 67.0932 46.3823C65.4932 47.7156 63.1599 48.3823 60.0932 48.3823ZM73.9691 47.9423C73.6491 47.9423 73.4891 47.7823 73.4891 47.4623V33.1823C73.4891 32.3556 73.4625 31.5823 73.4091 30.8623C73.3825 30.1156 73.3425 29.3956 73.2891 28.7023C73.2358 28.3289 73.3958 28.1423 73.7691 28.1423H77.6091C77.9025 28.1423 78.0758 28.2889 78.1291 28.5823C78.2091 29.0356 78.2758 29.5689 78.3291 30.1823C78.3825 30.7689 78.4225 31.3156 78.4491 31.8223L78.8891 33.9823V47.4623C78.8891 47.7823 78.7291 47.9423 78.4091 47.9423H73.9691ZM78.4891 36.1823L78.1291 31.6623C78.6625 30.9423 79.2491 30.2889 79.8891 29.7023C80.5291 29.0889 81.1958 28.6089 81.8891 28.2623C82.5825 27.8889 83.2491 27.7023 83.8891 27.7023C84.3158 27.7023 84.6625 27.7556 84.9291 27.8623C85.1691 27.9423 85.2891 28.1289 85.2891 28.4223C85.3158 29.0623 85.3158 29.7956 85.2891 30.6223C85.2891 31.4223 85.2491 32.1689 85.1691 32.8623C85.1425 33.2089 84.9558 33.3556 84.6091 33.3023C84.4758 33.2489 84.2891 33.2089 84.0491 33.1823C83.8358 33.1556 83.6091 33.1423 83.3691 33.1423C82.8358 33.1423 82.2758 33.2623 81.6891 33.5023C81.1291 33.7423 80.5691 34.0889 80.0091 34.5423C79.4758 34.9689 78.9691 35.5156 78.4891 36.1823ZM92.787 48.3823C91.0003 48.3823 89.6536 47.8489 88.747 46.7823C87.8403 45.7156 87.387 44.0623 87.387 41.8223V35.4223C87.387 32.7556 87.9603 30.8089 89.107 29.5823C90.2803 28.3289 91.907 27.7023 93.987 27.7023C94.8936 27.7023 95.8536 27.8223 96.867 28.0623C97.907 28.3023 98.787 28.6356 99.507 29.0623L99.627 33.1823C98.9603 32.8089 98.2803 32.5423 97.587 32.3823C96.9203 32.2223 96.307 32.1423 95.747 32.1423C94.7603 32.1423 94.0136 32.4623 93.507 33.1023C93.027 33.7156 92.787 34.6356 92.787 35.8623V40.8623C92.787 41.8223 92.9736 42.5423 93.347 43.0223C93.7203 43.4756 94.307 43.7023 95.107 43.7023C95.8803 43.7023 96.627 43.4756 97.347 43.0223C98.0936 42.5423 98.8803 41.8756 99.707 41.0223L100.107 44.4223C99.4403 45.1423 98.747 45.8089 98.027 46.4223C97.307 47.0089 96.507 47.4889 95.627 47.8623C94.7736 48.2089 93.827 48.3823 92.787 48.3823ZM100.347 47.9423C100.054 47.9423 99.8803 47.7956 99.827 47.5023C99.747 47.0489 99.667 46.5289 99.587 45.9423C99.5336 45.3556 99.507 44.8223 99.507 44.3423L99.027 42.3423V21.1023C99.027 20.7823 99.187 20.6223 99.507 20.6223H103.907C104.254 20.6223 104.427 20.7823 104.427 21.1023V42.9823C104.427 43.7556 104.44 44.5289 104.467 45.3023C104.52 46.0756 104.574 46.7556 104.627 47.3423C104.68 47.7423 104.52 47.9423 104.147 47.9423H100.347Z"/>
</mask>
<path d="M60.0932 48.3823C56.8932 48.3823 54.5865 47.6889 53.1732 46.3023C51.7865 44.8889 51.1732 43.0223 51.3332 40.7023C51.3865 40.3556 51.5599 40.1823 51.8532 40.1823H55.9732C56.3199 40.1823 56.4932 40.3556 56.4932 40.7023C56.4932 41.8489 56.7999 42.6489 57.4132 43.1023C58.0532 43.5289 59.0132 43.7423 60.2932 43.7423C61.5199 43.7423 62.4532 43.4756 63.0932 42.9423C63.7599 42.3823 64.0932 41.5823 64.0932 40.5423V39.8623C64.0932 37.8356 62.8265 36.8223 60.2932 36.8223H57.5732C57.2265 36.8223 57.0532 36.6489 57.0532 36.3023V32.9423C57.0532 32.6223 57.2265 32.4623 57.5732 32.4623H59.8532C61.1332 32.4623 62.0665 32.2089 62.6532 31.7023C63.2399 31.1689 63.5332 30.3823 63.5332 29.3423V28.6223C63.5332 27.6889 63.2532 26.9956 62.6932 26.5423C62.1599 26.0889 61.2799 25.8623 60.0532 25.8623C58.8532 25.8623 57.9599 26.1023 57.3732 26.5823C56.8132 27.0623 56.5332 27.7956 56.5332 28.7823C56.5332 29.1289 56.3732 29.3023 56.0532 29.3023H51.8932C51.5732 29.3023 51.4132 29.1289 51.4132 28.7823C51.3865 26.3556 52.1332 24.5023 53.6532 23.2223C55.1732 21.9423 57.4265 21.3023 60.4132 21.3023C63.3465 21.3023 65.5065 21.8889 66.8932 23.0623C68.3065 24.2089 69.0132 25.9023 69.0132 28.1423C69.0132 29.6889 68.6799 30.9956 68.0132 32.0623C67.3732 33.1023 66.4799 33.8489 65.3332 34.3023V34.4223C66.6932 34.8223 67.7332 35.5423 68.4532 36.5823C69.1732 37.5956 69.5332 38.9023 69.5332 40.5023C69.5332 43.0889 68.7199 45.0489 67.0932 46.3823C65.4932 47.7156 63.1599 48.3823 60.0932 48.3823ZM73.9691 47.9423C73.6491 47.9423 73.4891 47.7823 73.4891 47.4623V33.1823C73.4891 32.3556 73.4625 31.5823 73.4091 30.8623C73.3825 30.1156 73.3425 29.3956 73.2891 28.7023C73.2358 28.3289 73.3958 28.1423 73.7691 28.1423H77.6091C77.9025 28.1423 78.0758 28.2889 78.1291 28.5823C78.2091 29.0356 78.2758 29.5689 78.3291 30.1823C78.3825 30.7689 78.4225 31.3156 78.4491 31.8223L78.8891 33.9823V47.4623C78.8891 47.7823 78.7291 47.9423 78.4091 47.9423H73.9691ZM78.4891 36.1823L78.1291 31.6623C78.6625 30.9423 79.2491 30.2889 79.8891 29.7023C80.5291 29.0889 81.1958 28.6089 81.8891 28.2623C82.5825 27.8889 83.2491 27.7023 83.8891 27.7023C84.3158 27.7023 84.6625 27.7556 84.9291 27.8623C85.1691 27.9423 85.2891 28.1289 85.2891 28.4223C85.3158 29.0623 85.3158 29.7956 85.2891 30.6223C85.2891 31.4223 85.2491 32.1689 85.1691 32.8623C85.1425 33.2089 84.9558 33.3556 84.6091 33.3023C84.4758 33.2489 84.2891 33.2089 84.0491 33.1823C83.8358 33.1556 83.6091 33.1423 83.3691 33.1423C82.8358 33.1423 82.2758 33.2623 81.6891 33.5023C81.1291 33.7423 80.5691 34.0889 80.0091 34.5423C79.4758 34.9689 78.9691 35.5156 78.4891 36.1823ZM92.787 48.3823C91.0003 48.3823 89.6536 47.8489 88.747 46.7823C87.8403 45.7156 87.387 44.0623 87.387 41.8223V35.4223C87.387 32.7556 87.9603 30.8089 89.107 29.5823C90.2803 28.3289 91.907 27.7023 93.987 27.7023C94.8936 27.7023 95.8536 27.8223 96.867 28.0623C97.907 28.3023 98.787 28.6356 99.507 29.0623L99.627 33.1823C98.9603 32.8089 98.2803 32.5423 97.587 32.3823C96.9203 32.2223 96.307 32.1423 95.747 32.1423C94.7603 32.1423 94.0136 32.4623 93.507 33.1023C93.027 33.7156 92.787 34.6356 92.787 35.8623V40.8623C92.787 41.8223 92.9736 42.5423 93.347 43.0223C93.7203 43.4756 94.307 43.7023 95.107 43.7023C95.8803 43.7023 96.627 43.4756 97.347 43.0223C98.0936 42.5423 98.8803 41.8756 99.707 41.0223L100.107 44.4223C99.4403 45.1423 98.747 45.8089 98.027 46.4223C97.307 47.0089 96.507 47.4889 95.627 47.8623C94.7736 48.2089 93.827 48.3823 92.787 48.3823ZM100.347 47.9423C100.054 47.9423 99.8803 47.7956 99.827 47.5023C99.747 47.0489 99.667 46.5289 99.587 45.9423C99.5336 45.3556 99.507 44.8223 99.507 44.3423L99.027 42.3423V21.1023C99.027 20.7823 99.187 20.6223 99.507 20.6223H103.907C104.254 20.6223 104.427 20.7823 104.427 21.1023V42.9823C104.427 43.7556 104.44 44.5289 104.467 45.3023C104.52 46.0756 104.574 46.7556 104.627 47.3423C104.68 47.7423 104.52 47.9423 104.147 47.9423H100.347Z" fill="#151F34"/>
<path d="M53.1732 46.3023L51.0318 48.4033L51.0518 48.4237L51.0722 48.4437L53.1732 46.3023ZM51.3332 40.7023L48.3681 40.2461L48.349 40.3704L48.3403 40.4959L51.3332 40.7023ZM57.4132 43.1023L55.63 45.5148L55.6886 45.558L55.7491 45.5984L57.4132 43.1023ZM63.0932 42.9423L65.0138 45.2469L65.0228 45.2394L63.0932 42.9423ZM62.6532 31.7023L64.6141 33.9727L64.643 33.9478L64.6712 33.9221L62.6532 31.7023ZM62.6932 26.5423L60.7503 28.8281L60.7777 28.8514L60.8056 28.874L62.6932 26.5423ZM57.3732 26.5823L55.4735 24.2604L55.4469 24.2821L55.4208 24.3045L57.3732 26.5823ZM51.4132 28.7823H54.4132V28.7658L54.413 28.7493L51.4132 28.7823ZM66.8932 23.0623L64.9554 25.3524L64.979 25.3724L65.0031 25.3919L66.8932 23.0623ZM68.0132 32.0623L65.4692 30.4723L65.4637 30.4811L65.4582 30.49L68.0132 32.0623ZM65.3332 34.3023L64.2302 31.5124L62.3332 32.2624V34.3023H65.3332ZM65.3332 34.4223H62.3332V36.667L64.4867 37.3004L65.3332 34.4223ZM68.4532 36.5823L65.9866 38.2899L65.9971 38.305L66.0077 38.3199L68.4532 36.5823ZM67.0932 46.3823L65.1914 44.0621L65.182 44.0698L65.1727 44.0776L67.0932 46.3823ZM60.0932 45.3823C57.2163 45.3823 55.8659 44.7413 55.2742 44.1608L51.0722 48.4437C53.3072 50.6365 56.5701 51.3823 60.0932 51.3823V45.3823ZM55.3146 44.2012C54.6348 43.5083 54.2138 42.5372 54.3261 40.9087L48.3403 40.4959C48.1326 43.5073 48.9383 46.2695 51.0318 48.4033L55.3146 44.2012ZM54.2983 41.1584C54.2683 41.3534 54.1462 41.9119 53.6245 42.4336C53.0402 43.0179 52.3346 43.1823 51.8532 43.1823V37.1823C51.0785 37.1823 50.1395 37.4333 49.3819 38.1909C48.6869 38.8859 48.4514 39.7044 48.3681 40.2461L54.2983 41.1584ZM51.8532 43.1823H55.9732V37.1823H51.8532V43.1823ZM55.9732 43.1823C55.6841 43.1823 54.9163 43.108 54.2419 42.4336C53.5675 41.7592 53.4932 40.9914 53.4932 40.7023H59.4932C59.4932 40.0665 59.3322 39.0386 58.4845 38.1909C57.6368 37.3432 56.609 37.1823 55.9732 37.1823V43.1823ZM53.4932 40.7023C53.4932 42.3031 53.9243 44.254 55.63 45.5148L59.1964 40.6897C59.2903 40.7592 59.3691 40.8403 59.4291 40.9221C59.4876 41.0018 59.515 41.0638 59.5244 41.0885C59.5332 41.1112 59.5246 41.0965 59.5142 41.0304C59.5037 40.9641 59.4932 40.8573 59.4932 40.7023H53.4932ZM55.7491 45.5984C57.111 46.5064 58.7746 46.7423 60.2932 46.7423V40.7423C59.8104 40.7423 59.4775 40.7012 59.264 40.6537C59.0493 40.606 59.0166 40.5656 59.0773 40.6061L55.7491 45.5984ZM60.2932 46.7423C61.9001 46.7423 63.6306 46.3996 65.0138 45.2469L61.1727 40.6376C61.2758 40.5516 61.1397 40.7423 60.2932 40.7423V46.7423ZM65.0228 45.2394C66.5013 43.9974 67.0932 42.2783 67.0932 40.5423H61.0932C61.0932 40.7437 61.0611 40.7994 61.074 40.7684C61.0803 40.7533 61.0931 40.7282 61.1138 40.7001C61.1344 40.672 61.1535 40.6536 61.1636 40.6451L65.0228 45.2394ZM67.0932 40.5423V39.8623H61.0932V40.5423H67.0932ZM67.0932 39.8623C67.0932 38.1868 66.5365 36.455 65.0173 35.2397C63.626 34.1266 61.8804 33.8223 60.2932 33.8223V39.8223C60.7364 39.8223 61.0202 39.8676 61.1827 39.911C61.3395 39.9528 61.3382 39.9802 61.2691 39.9249C61.1861 39.8585 61.1189 39.7639 61.0865 39.6861C61.0617 39.6266 61.0932 39.6629 61.0932 39.8623H67.0932ZM60.2932 33.8223H57.5732V39.8223H60.2932V33.8223ZM57.5732 33.8223C57.8623 33.8223 58.6301 33.8966 59.3045 34.5709C59.9789 35.2453 60.0532 36.0132 60.0532 36.3023H54.0532C54.0532 36.938 54.2142 37.9659 55.0619 38.8136C55.9096 39.6613 56.9374 39.8223 57.5732 39.8223V33.8223ZM60.0532 36.3023V32.9423H54.0532V36.3023H60.0532ZM60.0532 32.9423C60.0532 33.3091 59.9427 34.1178 59.218 34.7867C58.5388 35.4137 57.8054 35.4623 57.5732 35.4623V29.4623C56.9944 29.4623 56.001 29.5908 55.1484 30.3778C54.2504 31.2068 54.0532 32.2554 54.0532 32.9423H60.0532ZM57.5732 35.4623H59.8532V29.4623H57.5732V35.4623ZM59.8532 35.4623C61.4172 35.4623 63.2246 35.1728 64.6141 33.9727L60.6923 29.4318C60.8125 29.3281 60.8651 29.3396 60.7274 29.377C60.5841 29.4159 60.3079 29.4623 59.8532 29.4623V35.4623ZM64.6712 33.9221C66.063 32.6568 66.5332 30.9495 66.5332 29.3423H60.5332C60.5332 29.5867 60.498 29.6754 60.5023 29.6641C60.5051 29.6566 60.5165 29.629 60.5421 29.5907C60.568 29.5517 60.6003 29.5142 60.6352 29.4824L64.6712 33.9221ZM66.5332 29.3423V28.6223H60.5332V29.3423H66.5332ZM66.5332 28.6223C66.5332 27.0727 66.0419 25.3934 64.5808 24.2105L60.8056 28.874C60.7476 28.827 60.6904 28.7681 60.6406 28.7001C60.5911 28.6326 60.5598 28.571 60.5415 28.5256C60.5064 28.4388 60.5332 28.4484 60.5332 28.6223H66.5332ZM64.6362 24.2564C63.28 23.1037 61.5075 22.8623 60.0532 22.8623V28.8623C60.4958 28.8623 60.7575 28.9046 60.8849 28.9374C61.0113 28.97 60.9171 28.9699 60.7503 28.8281L64.6362 24.2564ZM60.0532 22.8623C58.5402 22.8623 56.8304 23.1502 55.4735 24.2604L59.2729 28.9041C59.1733 28.9856 59.1368 28.973 59.2616 28.9395C59.3922 28.9044 59.6427 28.8623 60.0532 28.8623V22.8623ZM55.4208 24.3045C53.9902 25.5307 53.5332 27.2328 53.5332 28.7823H59.5332C59.5332 28.5644 59.565 28.5121 59.5459 28.5624C59.5353 28.59 59.513 28.6386 59.4723 28.6974C59.4311 28.7569 59.3808 28.8127 59.3256 28.86L55.4208 24.3045ZM53.5332 28.7823C53.5332 28.5501 53.5818 27.8167 54.2088 27.1374C54.8777 26.4128 55.6864 26.3023 56.0532 26.3023V32.3023C56.74 32.3023 57.7887 32.1051 58.6176 31.2071C59.4046 30.3545 59.5332 29.3611 59.5332 28.7823H53.5332ZM56.0532 26.3023H51.8932V32.3023H56.0532V26.3023ZM51.8932 26.3023C52.26 26.3023 53.0687 26.4128 53.7376 27.1374C54.3646 27.8167 54.4132 28.5501 54.4132 28.7823H48.4132C48.4132 29.3611 48.5418 30.3545 49.3288 31.2071C50.1577 32.1051 51.2064 32.3023 51.8932 32.3023V26.3023ZM54.413 28.7493C54.3938 27.001 54.9023 26.0924 55.5856 25.517L51.7208 20.9275C49.3641 22.9121 48.3793 25.7102 48.4134 28.8152L54.413 28.7493ZM55.5856 25.517C56.3504 24.873 57.791 24.3023 60.4132 24.3023V18.3023C57.0621 18.3023 53.996 19.0116 51.7208 20.9275L55.5856 25.517ZM60.4132 24.3023C63.0454 24.3023 64.3567 24.8458 64.9554 25.3524L68.831 20.7721C66.6564 18.932 63.6476 18.3023 60.4132 18.3023V24.3023ZM65.0031 25.3919C65.5537 25.8387 66.0132 26.577 66.0132 28.1423H72.0132C72.0132 25.2275 71.0594 22.5792 68.7833 20.7326L65.0031 25.3919ZM66.0132 28.1423C66.0132 29.2558 65.7761 29.9812 65.4692 30.4723L70.5572 33.6523C71.5836 32.01 72.0132 30.122 72.0132 28.1423H66.0132ZM65.4582 30.49C65.1615 30.9721 64.7804 31.2949 64.2302 31.5124L66.4362 37.0921C68.1793 36.403 69.5849 35.2324 70.5682 33.6346L65.4582 30.49ZM62.3332 34.3023V34.4223H68.3332V34.3023H62.3332ZM64.4867 37.3004C65.2729 37.5316 65.7042 37.8819 65.9866 38.2899L70.9198 34.8746C69.7622 33.2026 68.1135 32.1129 66.1797 31.5442L64.4867 37.3004ZM66.0077 38.3199C66.2757 38.6972 66.5332 39.3464 66.5332 40.5023H72.5332C72.5332 38.4582 72.0707 36.494 70.8987 34.8446L66.0077 38.3199ZM66.5332 40.5023C66.5332 42.4168 65.9647 43.4282 65.1914 44.0621L68.995 48.7024C71.475 46.6696 72.5332 43.761 72.5332 40.5023H66.5332ZM65.1727 44.0776C64.3158 44.7916 62.7797 45.3823 60.0932 45.3823V51.3823C63.5401 51.3823 66.6706 50.6396 69.0138 48.6869L65.1727 44.0776ZM73.4091 30.8623L70.4111 30.9693L70.4131 31.0267L70.4173 31.0839L73.4091 30.8623ZM73.2891 28.7023L76.2803 28.4722L76.2728 28.3747L76.259 28.278L73.2891 28.7023ZM78.1291 28.5823L81.0835 28.0609L81.0821 28.0533L81.0808 28.0456L78.1291 28.5823ZM78.3291 30.1823L75.3404 30.4422L75.3415 30.4539L78.3291 30.1823ZM78.4491 31.8223L75.4533 31.9799L75.465 32.2026L75.5095 32.4211L78.4491 31.8223ZM78.8891 33.9823H81.8891V33.6798L81.8288 33.3834L78.8891 33.9823ZM78.4891 36.1823L75.4986 36.4204L76.1476 44.5687L80.9237 37.9352L78.4891 36.1823ZM78.1291 31.6623L75.7185 29.8766L75.0494 30.7799L75.1386 31.9004L78.1291 31.6623ZM79.8891 29.7023L81.9163 31.9137L81.9408 31.8912L81.9649 31.8682L79.8891 29.7023ZM81.8891 28.2623L83.2308 30.9455L83.2714 30.9252L83.3114 30.9037L81.8891 28.2623ZM84.9291 27.8623L83.815 30.6477L83.8968 30.6804L83.9805 30.7083L84.9291 27.8623ZM85.2891 28.4223H82.2891V28.4847L82.2917 28.5471L85.2891 28.4223ZM85.2891 30.6223L82.2907 30.5255L82.2891 30.5739V30.6223H85.2891ZM85.1691 32.8623L82.1889 32.5184L82.1824 32.5752L82.178 32.6322L85.1691 32.8623ZM84.6091 33.3023L83.495 36.0877L83.8137 36.2152L84.153 36.2674L84.6091 33.3023ZM84.0491 33.1823L83.677 36.1591L83.6974 36.1616L83.7178 36.1639L84.0491 33.1823ZM81.6891 33.5023L80.5532 30.7256L80.5302 30.735L80.5074 30.7448L81.6891 33.5023ZM80.0091 34.5423L81.8832 36.8849L81.89 36.8794L81.8967 36.874L80.0091 34.5423ZM73.9691 44.9423C74.2716 44.9423 75.0494 45.0199 75.7305 45.7009C76.4115 46.382 76.4891 47.1598 76.4891 47.4623H70.4891C70.4891 48.0847 70.6468 49.1025 71.4878 49.9436C72.3289 50.7846 73.3467 50.9423 73.9691 50.9423V44.9423ZM76.4891 47.4623V33.1823H70.4891V47.4623H76.4891ZM76.4891 33.1823C76.4891 32.292 76.4605 31.444 76.4009 30.6406L70.4173 31.0839C70.4645 31.7205 70.4891 32.4192 70.4891 33.1823H76.4891ZM76.4072 30.7552C76.3792 29.9705 76.337 29.2093 76.2803 28.4722L70.298 28.9323C70.3479 29.5818 70.3857 30.2607 70.4111 30.9693L76.4072 30.7552ZM76.259 28.278C76.2893 28.4899 76.3719 29.3889 75.6469 30.2346C74.9146 31.089 74.0006 31.1423 73.7691 31.1423V25.1423C73.1644 25.1423 71.9837 25.2889 71.0914 26.3299C70.2064 27.3623 70.2357 28.5413 70.3193 29.1265L76.259 28.278ZM73.7691 31.1423H77.6091V25.1423H73.7691V31.1423ZM77.6091 31.1423C77.2574 31.1423 76.6182 31.0475 76.0213 30.5424C75.4304 30.0424 75.2359 29.4402 75.1775 29.1189L81.0808 28.0456C80.969 27.431 80.6613 26.6088 79.897 25.9621C79.1267 25.3104 78.2542 25.1423 77.6091 25.1423V31.1423ZM75.1748 29.1036C75.2354 29.4471 75.2923 29.8893 75.3404 30.4421L81.3179 29.9224C81.2593 29.2486 81.1829 28.6241 81.0835 28.0609L75.1748 29.1036ZM75.3415 30.4539C75.3919 31.0085 75.4289 31.5168 75.4533 31.9799L81.445 31.6646C81.416 31.1144 81.3731 30.5294 81.3168 29.9107L75.3415 30.4539ZM75.5095 32.4211L75.9495 34.5811L81.8288 33.3834L81.3888 31.2234L75.5095 32.4211ZM75.8891 33.9823V47.4623H81.8891V33.9823H75.8891ZM75.8891 47.4623C75.8891 47.1598 75.9668 46.382 76.6478 45.7009C77.3289 45.0199 78.1067 44.9423 78.4091 44.9423V50.9423C79.0316 50.9423 80.0494 50.7846 80.8905 49.9436C81.7315 49.1025 81.8891 48.0847 81.8891 47.4623H75.8891ZM78.4091 44.9423H73.9691V50.9423H78.4091V44.9423ZM81.4797 35.9441L81.1197 31.4241L75.1386 31.9004L75.4986 36.4204L81.4797 35.9441ZM80.5398 33.4479C80.9628 32.8769 81.4219 32.3669 81.9163 31.9137L77.862 27.4908C77.0764 28.2109 76.3621 29.0077 75.7185 29.8766L80.5398 33.4479ZM81.9649 31.8682C82.4181 31.4339 82.8422 31.1399 83.2308 30.9455L80.5475 25.579C79.5495 26.078 78.6402 26.744 77.8134 27.5363L81.9649 31.8682ZM83.3114 30.9037C83.6671 30.7122 83.8475 30.7023 83.8891 30.7023V24.7023C82.6508 24.7023 81.4979 25.0657 80.4668 25.6208L83.3114 30.9037ZM83.8891 30.7023C83.9337 30.7023 83.9662 30.7037 83.9877 30.7052C84.0094 30.7066 84.0172 30.708 84.013 30.7074C84.0088 30.7067 83.9893 30.7036 83.9569 30.6951C83.9245 30.6867 83.8759 30.6721 83.815 30.6477L86.0433 25.0768C85.294 24.7771 84.5294 24.7023 83.8891 24.7023V30.7023ZM83.9805 30.7083C83.5471 30.5639 83.0368 30.2463 82.6756 29.6845C82.3392 29.1612 82.2891 28.6695 82.2891 28.4223H88.2891C88.2891 27.8817 88.1791 27.15 87.7227 26.44C87.2415 25.6915 86.5512 25.2407 85.8778 25.0162L83.9805 30.7083ZM82.2917 28.5471C82.3146 29.0957 82.3156 29.7527 82.2907 30.5255L88.2876 30.719C88.316 29.8384 88.317 29.0288 88.2865 28.2974L82.2917 28.5471ZM82.2891 30.6223C82.2891 31.3236 82.254 31.9543 82.1889 32.5184L88.1494 33.2061C88.2443 32.3836 88.2891 31.5209 88.2891 30.6223H82.2891ZM82.178 32.6322C82.1988 32.3614 82.3315 31.5209 83.1557 30.8733C83.9734 30.2308 84.8117 30.2981 85.0653 30.3371L84.153 36.2674C84.7533 36.3597 85.8583 36.3803 86.8626 35.5912C87.8735 34.797 88.1128 33.7098 88.1603 33.0924L82.178 32.6322ZM85.7233 30.5168C85.2262 30.318 84.7331 30.2398 84.3804 30.2006L83.7178 36.1639C83.7628 36.1689 83.7671 36.1714 83.7406 36.1657C83.7261 36.1626 83.6981 36.1561 83.6591 36.1448C83.6206 36.1335 83.5643 36.1154 83.495 36.0877L85.7233 30.5168ZM84.4212 30.2054C84.0712 30.1617 83.7194 30.1423 83.3691 30.1423V36.1423C83.4988 36.1423 83.6004 36.1495 83.677 36.1591L84.4212 30.2054ZM83.3691 30.1423C82.3802 30.1423 81.4338 30.3654 80.5532 30.7256L82.825 36.2789C83.1178 36.1591 83.2914 36.1423 83.3691 36.1423V30.1423ZM80.5074 30.7448C79.6524 31.1113 78.8582 31.6142 78.1215 32.2105L81.8967 36.874C82.2801 36.5637 82.6059 36.3733 82.8709 36.2597L80.5074 30.7448ZM78.1351 32.1997C77.3511 32.8268 76.6626 33.5847 76.0545 34.4293L80.9237 37.9352C81.2756 37.4464 81.6005 37.111 81.8832 36.8849L78.1351 32.1997ZM88.747 46.7823L86.4611 48.7252L88.747 46.7823ZM89.107 29.5823L86.9169 27.532L86.9154 27.5336L89.107 29.5823ZM96.867 28.0623L96.1756 30.9815L96.184 30.9835L96.1924 30.9854L96.867 28.0623ZM99.507 29.0623L102.506 28.9749L102.458 27.3236L101.036 26.4814L99.507 29.0623ZM99.627 33.1823L98.1611 35.7998L102.78 38.3862L102.626 33.0949L99.627 33.1823ZM97.587 32.3823L96.8868 35.2994L96.8996 35.3025L96.9124 35.3054L97.587 32.3823ZM93.507 33.1023L91.1548 31.2402L91.1496 31.2467L91.1444 31.2533L93.507 33.1023ZM93.347 43.0223L90.9789 44.8641L91.0046 44.8971L91.0312 44.9294L93.347 43.0223ZM97.347 43.0223L98.9454 45.561L98.9573 45.5534L98.9692 45.5458L97.347 43.0223ZM99.707 41.0223L102.686 40.6717L101.948 34.3971L97.5522 38.9349L99.707 41.0223ZM100.107 44.4223L102.308 46.4605L103.248 45.4455L103.086 44.0717L100.107 44.4223ZM98.027 46.4223L99.922 48.748L99.9474 48.7273L99.9724 48.706L98.027 46.4223ZM95.627 47.8623L96.7561 50.6417L96.7774 50.633L96.7986 50.624L95.627 47.8623ZM99.827 47.5023L96.8726 48.0236L96.874 48.0313L96.8753 48.0389L99.827 47.5023ZM99.587 45.9423L96.5993 46.2139L96.6054 46.2809L96.6145 46.3476L99.587 45.9423ZM99.507 44.3423H102.507V43.9873L102.424 43.6421L99.507 44.3423ZM99.027 42.3423H96.027V42.6972L96.1098 43.0424L99.027 42.3423ZM104.467 45.3023L101.469 45.4056L101.471 45.4572L101.474 45.5087L104.467 45.3023ZM104.627 47.3423L101.639 47.6139L101.645 47.6765L101.653 47.7388L104.627 47.3423ZM92.787 45.3823C91.6185 45.3823 91.2192 45.0586 91.0328 44.8393L86.4611 48.7252C88.088 50.6392 90.3821 51.3823 92.787 51.3823V45.3823ZM91.0328 44.8393C90.7936 44.5579 90.387 43.7521 90.387 41.8223H84.387C84.387 44.3724 84.887 46.8733 86.4611 48.7252L91.0328 44.8393ZM90.387 41.8223V35.4223H84.387V41.8223H90.387ZM90.387 35.4223C90.387 33.0887 90.9038 32.0531 91.2985 31.6309L86.9154 27.5336C85.0167 29.5647 84.387 32.4225 84.387 35.4223H90.387ZM91.297 31.6325C91.7856 31.1107 92.5476 30.7023 93.987 30.7023V24.7023C91.2663 24.7023 88.775 25.5472 86.9169 27.532L91.297 31.6325ZM93.987 30.7023C94.6294 30.7023 95.356 30.7874 96.1756 30.9815L97.5584 25.143C96.3512 24.8571 95.1578 24.7023 93.987 24.7023V30.7023ZM96.1924 30.9854C97.0101 31.1741 97.5846 31.4103 97.9775 31.6431L101.036 26.4814C99.9893 25.8609 98.8038 25.4304 97.5415 25.1391L96.1924 30.9854ZM96.5082 29.1496L96.6282 33.2696L102.626 33.0949L102.506 28.9749L96.5082 29.1496ZM101.093 30.5647C100.196 30.0628 99.2514 29.6875 98.2615 29.4591L96.9124 35.3054C97.3092 35.397 97.7242 35.5551 98.1611 35.7998L101.093 30.5647ZM98.2871 29.4651C97.4402 29.2618 96.5884 29.1423 95.747 29.1423V35.1423C96.0255 35.1423 96.4004 35.1827 96.8868 35.2994L98.2871 29.4651ZM95.747 29.1423C94.0561 29.1423 92.3505 29.7298 91.1548 31.2402L95.8591 34.9644C95.8372 34.992 95.8029 35.0281 95.7562 35.0639C95.7094 35.0997 95.6643 35.1245 95.6287 35.1397C95.5576 35.1702 95.5748 35.1423 95.747 35.1423V29.1423ZM91.1444 31.2533C90.0735 32.6217 89.787 34.3264 89.787 35.8623H95.787C95.787 35.4348 95.8298 35.1629 95.8698 35.0095C95.9085 34.861 95.9316 34.8717 95.8695 34.9512L91.1444 31.2533ZM89.787 35.8623V40.8623H95.787V35.8623H89.787ZM89.787 40.8623C89.787 42.1284 90.019 43.6299 90.9789 44.8641L95.715 41.1804C95.8287 41.3266 95.844 41.4197 95.8309 41.3694C95.8167 41.3144 95.787 41.1576 95.787 40.8623H89.787ZM91.0312 44.9294C92.1618 46.3023 93.7542 46.7023 95.107 46.7023V40.7023C94.9805 40.7023 95.017 40.6832 95.1482 40.7339C95.3009 40.7929 95.4982 40.9153 95.6627 41.1151L91.0312 44.9294ZM95.107 46.7023C96.5019 46.7023 97.7964 46.2844 98.9454 45.561L95.7485 40.4836C95.4575 40.6668 95.2587 40.7023 95.107 40.7023V46.7023ZM98.9692 45.5458C99.962 44.9076 100.925 44.0765 101.862 43.1096L97.5522 38.9349C96.8355 39.6747 96.2252 40.177 95.7247 40.4987L98.9692 45.5458ZM96.7275 41.3728L97.1275 44.7728L103.086 44.0717L102.686 40.6717L96.7275 41.3728ZM97.9057 42.384C97.3164 43.0205 96.7082 43.6047 96.0816 44.1385L99.9724 48.706C100.786 48.0131 101.564 47.2641 102.308 46.4605L97.9057 42.384ZM96.1319 44.0966C95.6377 44.4993 95.0825 44.8344 94.4553 45.1005L96.7986 50.624C97.9314 50.1434 98.9762 49.5186 99.922 48.748L96.1319 44.0966ZM94.4978 45.0829C94.0465 45.2662 93.4896 45.3823 92.787 45.3823V51.3823C94.1643 51.3823 95.5007 51.1516 96.7561 50.6417L94.4978 45.0829ZM100.347 44.9423C100.699 44.9423 101.338 45.037 101.935 45.5421C102.526 46.0421 102.72 46.6443 102.779 46.9656L96.8753 48.0389C96.9871 48.6535 97.2948 49.4757 98.0591 50.1224C98.8294 50.7742 99.7019 50.9423 100.347 50.9423V44.9423ZM102.781 46.9809C102.71 46.5752 102.636 46.0951 102.559 45.5369L96.6145 46.3476C96.6983 46.9627 96.7842 47.5227 96.8726 48.0236L102.781 46.9809ZM102.575 45.6707C102.528 45.1549 102.507 44.714 102.507 44.3423H96.507C96.507 44.9305 96.5395 45.5563 96.5993 46.2139L102.575 45.6707ZM102.424 43.6421L101.944 41.6421L96.1098 43.0424L96.5898 45.0424L102.424 43.6421ZM102.027 42.3423V21.1023H96.027V42.3423H102.027ZM102.027 21.1023C102.027 21.4047 101.949 22.1825 101.268 22.8636C100.587 23.5446 99.8094 23.6223 99.507 23.6223V17.6223C98.8845 17.6223 97.8667 17.7799 97.0256 18.6209C96.1846 19.462 96.027 20.4798 96.027 21.1023H102.027ZM99.507 23.6223H103.907V17.6223H99.507V23.6223ZM103.907 23.6223C103.675 23.6223 102.941 23.5737 102.262 22.9467C101.537 22.2778 101.427 21.4691 101.427 21.1023H107.427C107.427 20.4154 107.23 19.3668 106.332 18.5379C105.479 17.7508 104.486 17.6223 103.907 17.6223V23.6223ZM101.427 21.1023V42.9823H107.427V21.1023H101.427ZM101.427 42.9823C101.427 43.7901 101.441 44.5979 101.469 45.4056L107.465 45.1989C107.44 44.46 107.427 43.7211 107.427 42.9823H101.427ZM101.474 45.5087C101.528 46.2974 101.583 47 101.639 47.6139L107.615 47.0707C107.564 46.5112 107.512 45.8538 107.46 45.0959L101.474 45.5087ZM101.653 47.7388C101.632 47.5828 101.544 46.744 102.204 45.9182C102.918 45.0263 103.855 44.9423 104.147 44.9423V50.9423C104.813 50.9423 106.016 50.7582 106.89 49.6663C107.71 48.6405 107.675 47.5017 107.601 46.9458L101.653 47.7388ZM104.147 44.9423H100.347V50.9423H104.147V44.9423Z" fill="white" mask="url(#path-7-outside-1_12285_9049)"/>
<defs>
<linearGradient id="paint0_linear_12285_9049" x1="1860.73" y1="-254.902" x2="1860.73" y2="31322.3" gradientUnits="userSpaceOnUse">
<stop stop-color="#FFB950"/>
<stop offset="1" stop-color="#C3852B"/>
</linearGradient>
<linearGradient id="paint1_linear_12285_9049" x1="1926.66" y1="-254.902" x2="1926.66" y2="31322.3" gradientUnits="userSpaceOnUse">
<stop stop-color="#FFB950"/>
<stop offset="1" stop-color="#C3852B"/>
</linearGradient>
</defs>
</svg>
