<svg width="263" height="263" viewBox="0 0 263 263" fill="none" xmlns="http://www.w3.org/2000/svg">
<path opacity="0.3" fill-rule="evenodd" clip-rule="evenodd" d="M263 131.5C263 204.126 204.126 263 131.5 263C58.8741 263 0 204.126 0 131.5C0 58.8741 58.8741 0 131.5 0C204.126 0 263 58.8741 263 131.5Z" fill="#FFD6A7"/>
<path opacity="0.3" fill-rule="evenodd" clip-rule="evenodd" d="M240.443 131.5C240.443 191.423 191.867 240 131.943 240C72.0201 240 23.4434 191.423 23.4434 131.5C23.4434 71.5767 72.0201 23 131.943 23C191.867 23 240.443 71.5767 240.443 131.5Z" fill="#FFD6A7"/>
<g filter="url(#filter0_d_12285_9039)">
<path fill-rule="evenodd" clip-rule="evenodd" d="M28.2514 100.39L28.3272 100.793C29.1287 104.967 29.7076 105.1 31.3253 108.416L31.4482 108.652C32.5025 110.576 35.094 112.916 36.1058 115.139C37.8329 113.273 41.2286 111.827 42.7588 110.261C45.4181 107.542 45.9646 107.687 48.2028 103.614L48.0679 104.037C46.9505 107.787 47.1361 113.691 45.333 117.013L45.162 117.322C42.916 121.295 39.2567 124.643 35.6367 125.264C35.504 127.405 35.4204 129.549 35.3851 131.694C35.9701 130.192 36.7095 128.806 37.5923 127.922C41.7285 123.778 47.9657 122.799 52.1997 118.757L52.1581 119.238C50.9232 132.025 40.1353 137.887 35.453 139.024C35.5224 141.013 35.6337 143.001 35.7869 144.987L35.8638 145.943C35.9513 146.986 36.0503 148.029 36.1607 149.07C36.4075 147.932 36.6856 146.916 37.0011 146.075L37.1133 145.81C37.9347 144.069 40.211 142.807 42.523 141.656L43.2162 141.313C44.8297 140.52 46.3912 139.763 47.4139 138.915C51.1035 135.854 51.7691 136.107 55.1088 131.292L54.9062 131.752C52.9959 136.303 52.4626 143.771 49.7573 147.716L49.5379 148.03C46.36 152.517 41.6312 156.126 37.1825 156.723C37.8051 160.602 38.587 164.455 39.523 168.272C40.0787 165.512 41.2889 161.753 43.065 159.974C47.3086 155.722 53.7074 154.718 58.0531 150.573L58.0113 151.055C56.6999 164.683 44.8146 170.649 40.3475 171.479C41.4543 175.584 42.7394 179.641 44.1985 183.634C44.5353 181.029 44.9769 178.636 45.5839 177.019L45.6903 176.771C46.9488 174.166 52.1013 172.846 54.2944 171.028C57.3811 168.468 57.9382 168.679 60.7315 164.652L60.5501 165.065C58.9612 168.874 58.5128 175.098 56.254 178.39L56.0457 178.688C53.2309 182.645 48.9758 185.78 45.0817 185.987C46.4714 189.599 48.0049 193.155 49.6776 196.643C50.206 194.696 51.0549 192.561 52.1891 191.425C55.6235 187.984 60.8006 187.173 64.3158 183.817L64.2765 184.265C63.318 193.947 55.7548 198.834 51.5034 200.316C52.9991 203.221 54.5931 206.075 56.2832 208.87C56.5292 207.232 56.8367 205.761 57.2322 204.706L57.3302 204.481C58.3558 202.423 62.4331 201.375 64.1712 199.932C66.6306 197.893 67.075 198.062 69.3005 194.853L69.1327 195.239C67.886 198.278 67.5215 203.192 65.7332 205.799L65.5363 206.08C63.5805 208.811 60.7628 211.044 58.0247 211.678C60.9457 216.263 64.13 220.679 67.5673 224.894L67.648 225C68.7557 226.572 66.5815 228.706 65.3121 227.149L64.3815 225.997C61.0654 221.848 57.9722 217.526 55.1268 213.044C52.3567 214.78 47.9783 214.893 44.1336 213.769L43.7276 213.636C40.4646 212.46 36.8579 208.624 33.8283 207.151L34.1749 207.249C36.984 208.033 37.837 207.975 39.5679 207.916L39.7991 207.908C40.2723 207.893 40.8134 207.88 41.4733 207.885L41.7671 207.879C42.6705 207.835 43.7681 207.572 44.8992 207.31C46.1443 207.02 47.4298 206.732 48.5473 206.732L48.8076 206.738C49.4073 206.764 49.9506 206.884 50.4027 207.147L50.68 207.314C51.2123 207.648 51.7926 208.076 52.4029 208.57L51.8772 207.667L51.146 206.378L50.5299 205.267C49.4466 203.294 48.4085 201.295 47.4162 199.273C43.4685 200.667 32.8192 201.518 25.9579 192.626L26.4757 192.71C28.7198 193.026 30.9628 192.737 33.2031 192.449C34.7502 192.251 36.2972 192.052 37.8422 192.052L38.3191 192.059C39.1139 192.081 39.9087 192.161 40.7035 192.326L40.9165 192.376C42.3593 192.748 44.0236 193.873 45.4371 195.073C43.8205 191.504 42.3459 187.87 41.0161 184.185C37.0857 185.739 31.4384 184.546 26.9159 181.887C23.1263 179.66 19.7866 173.523 16.4213 170.693L16.8081 170.916C20.9522 173.282 21.4836 172.884 25.4847 173.925L25.7582 173.989C28.8429 174.645 34.3772 173.63 36.5599 175.761L36.7931 175.995C37.5781 176.806 38.4252 177.889 39.2941 179.128C38.2056 175.741 37.2394 172.315 36.3974 168.86C32.296 169.74 18.1884 168.326 12.3457 155.12L12.9817 155.389C15.3276 156.316 17.8199 156.642 20.3195 156.928L21.6827 157.084C24.4074 157.401 27.1105 157.793 29.6113 158.99L29.8197 159.095C31.9712 160.238 34.2066 163.146 35.6138 165.463L35.4934 164.919L35.2373 163.703C34.761 161.394 34.3393 159.075 33.973 156.747C29.0407 157.332 23.0986 153.756 19.122 148.933C15.9747 145.114 14.8115 137.335 12.3457 133.043L12.6355 133.389C16.1329 137.532 16.8409 137.307 20.6829 139.96L20.9251 140.12C23.9239 142.012 30.1949 143.072 31.6836 146.178L31.8332 146.501C32.2771 147.491 32.6917 148.712 33.0786 150.076C32.6732 146.431 32.4042 142.771 32.274 139.106C27.7624 138.187 16.1973 132.228 15.1634 118.757L15.6606 119.21C19.8741 122.879 25.7937 123.937 29.7708 127.922L29.931 128.089C30.8541 129.096 31.6132 130.648 32.1942 132.276C32.2235 129.638 32.3273 127 32.5047 124.366C29.6172 122.329 27.5055 118.207 26.7553 114.013C26.0642 110.148 28.2865 104.317 28.2514 100.39Z" fill="url(#paint0_linear_12285_9039)"/>
</g>
<path d="M131.42 194.83C166.309 194.83 194.591 166.548 194.591 131.66C194.591 96.7713 166.309 68.4891 131.42 68.4891C96.5321 68.4891 68.25 96.7713 68.25 131.66C68.25 166.548 96.5321 194.83 131.42 194.83Z" fill="#FFD6A7" stroke="#7A4300" stroke-width="3"/>
<circle cx="131.419" cy="131.66" r="41.4681" fill="white"/>
<path fill-rule="evenodd" clip-rule="evenodd" d="M237.408 100.39L237.414 100.834C237.534 104.746 239.569 110.291 238.903 114.013L238.838 114.36C238.037 118.433 235.963 122.385 233.155 124.367C233.334 126.995 233.44 129.627 233.472 132.26C234.085 130.545 234.896 128.916 235.889 127.922C240.025 123.778 246.261 122.799 250.498 118.757L250.456 119.238C249.187 132.365 237.852 138.194 233.39 139.105C233.316 141.286 233.188 143.466 233.011 145.643L232.902 146.91C232.806 147.967 232.7 149.023 232.582 150.078C233.011 148.561 233.475 147.221 233.975 146.178L234.11 145.924C235.858 142.93 242.166 141.901 244.977 139.96C248.923 137.235 249.563 137.546 253.313 133.043L253.071 133.484C252.118 135.29 251.356 137.615 250.574 139.981L250.181 141.165C249.189 144.124 248.111 147.023 246.537 148.933L246.286 149.233C242.313 153.905 236.514 157.321 231.683 156.746C231.223 159.671 230.675 162.582 230.041 165.474C231.492 163.08 233.831 160.051 236.049 158.99C238.549 157.793 241.252 157.401 243.977 157.084L245.34 156.928C248.066 156.616 250.784 156.257 253.313 155.12L253.125 155.535C247.172 168.363 233.305 169.733 229.255 168.859C228.415 172.318 227.448 175.748 226.359 179.138C227.317 177.771 228.249 176.593 229.1 175.761L229.308 175.576C231.689 173.631 237.245 174.686 240.174 173.925C244.298 172.853 244.738 173.308 249.238 170.693L248.877 171.009C245.634 173.956 242.398 179.739 238.743 181.887L238.408 182.08C233.943 184.604 228.472 185.702 224.637 184.184C224.079 185.731 223.493 187.27 222.882 188.799L222.416 189.951C221.707 191.682 220.966 193.399 220.194 195.1C221.683 193.829 223.457 192.639 224.957 192.326C225.909 192.128 226.863 192.052 227.817 192.052L228.479 192.064C229.804 192.109 231.13 192.28 232.457 192.449L232.974 192.515C235.214 192.8 237.457 193.038 239.702 192.626L239.449 192.946C232.57 201.51 222.111 200.647 218.224 199.265C216.662 202.444 214.986 205.563 213.2 208.618C213.938 208.014 214.635 207.508 215.257 207.147C215.773 206.846 216.409 206.732 217.111 206.732L217.49 206.742C218.514 206.796 219.653 207.052 220.759 207.31L221.135 207.397C222.258 207.656 223.328 207.892 224.187 207.885L224.507 207.884C225.128 207.885 225.639 207.9 226.091 207.916L226.295 207.923C227.96 207.98 228.859 208.004 231.831 207.151L231.449 207.347C228.373 209.008 224.758 212.823 221.525 213.769L221.174 213.868C217.409 214.887 213.2 214.727 210.514 213.033C207.415 217.929 204.023 222.644 200.348 227.149L200.26 227.25C198.951 228.642 196.833 226.437 198.093 224.894L199 223.769C202.091 219.896 204.97 215.856 207.63 211.677C204.801 211.019 201.887 208.656 199.926 205.799C198.061 203.079 197.745 197.846 196.359 194.853L196.576 195.163C198.617 198.053 199.11 197.961 201.488 199.932L201.683 200.086C203.582 201.502 207.627 202.573 208.427 204.706L208.535 205.01C208.879 206.034 209.152 207.378 209.374 208.859C210.231 207.447 211.061 206.018 211.866 204.576L212.337 203.726C212.957 202.597 213.562 201.46 214.151 200.315C209.836 198.809 202.11 193.794 201.343 183.817L201.811 184.241C205.306 187.249 210.187 188.134 213.471 191.425L213.62 191.582C214.678 192.749 215.475 194.776 215.98 196.635C217.651 193.147 219.182 189.594 220.568 185.986C216.579 185.769 212.213 182.483 209.406 178.39C207.063 174.976 206.668 168.409 204.928 164.652L205.176 165.006C207.759 168.669 208.372 168.545 211.367 171.028L211.581 171.197C213.951 172.986 219.067 174.332 220.077 177.019L220.193 177.342C220.739 178.941 221.144 181.182 221.458 183.609C222.911 179.622 224.19 175.573 225.291 171.475C220.756 170.621 208.678 164.521 207.608 150.573L208.118 151.037C212.441 154.8 218.514 155.886 222.594 159.974L222.755 160.143C224.433 161.97 225.582 165.549 226.125 168.219C227.054 164.419 227.83 160.582 228.45 156.72C223.905 156.097 219.073 152.338 215.904 147.716C213.104 143.635 212.63 135.783 210.551 131.292L210.809 131.662C213.928 136.096 214.652 135.934 218.247 138.915L218.474 139.095C219.493 139.871 220.946 140.577 222.444 141.313L223.137 141.656C225.565 142.865 227.953 144.195 228.659 146.075L228.779 146.41C229.038 147.157 229.27 148.025 229.48 148.979C229.831 145.67 230.067 142.348 230.188 139.02C225.438 137.858 214.466 131.861 213.459 118.757L213.956 119.21C218.171 122.879 224.09 123.937 228.068 127.922L228.228 128.089C229.035 128.971 229.717 130.269 230.264 131.671C230.232 129.534 230.151 127.398 230.021 125.263C226.308 124.625 222.555 121.119 220.327 117.013C218.454 113.563 218.728 107.329 217.456 103.614L217.655 103.973C219.73 107.681 220.321 107.624 222.901 110.261L223.092 110.448C224.699 111.943 227.895 113.348 229.555 115.139C230.608 112.824 233.375 110.382 234.335 108.416C236.003 104.996 236.566 104.962 237.408 100.39Z" fill="url(#paint1_linear_12285_9039)"/>
<mask id="path-7-outside-1_12285_9039" maskUnits="userSpaceOnUse" x="102.346" y="52.4423" width="58" height="34" fill="black">
<rect fill="white" x="102.346" y="52.4423" width="58" height="34"/>
<path d="M106.186 82.4423C105.839 82.4423 105.666 82.2823 105.666 81.9623V78.2823C105.666 77.9356 105.839 77.7623 106.186 77.7623H111.866V61.8823L106.466 63.6023C106.092 63.7089 105.906 63.5756 105.906 63.2023V59.6023C105.906 59.3089 106.039 59.1223 106.306 59.0423L115.066 56.1623C115.279 56.0823 115.492 56.0423 115.706 56.0423H116.786C117.106 56.0423 117.266 56.2023 117.266 56.5223V77.7623H122.466C122.786 77.7623 122.946 77.9356 122.946 78.2823V81.9623C122.946 82.2823 122.786 82.4423 122.466 82.4423H106.186ZM132.447 82.8823C129.754 82.8823 127.794 82.3756 126.567 81.3623C125.367 80.3223 124.847 78.7089 125.007 76.5223C125.034 76.1756 125.207 76.0023 125.527 76.0023H129.567C129.887 76.0023 130.034 76.1756 130.007 76.5223C130.007 77.3756 130.207 78.0156 130.607 78.4423C131.034 78.8423 131.661 79.0423 132.487 79.0423C133.367 79.0423 134.007 78.8956 134.407 78.6023C134.834 78.2823 135.047 77.8023 135.047 77.1623C135.047 76.6556 134.887 76.2423 134.567 75.9223C134.274 75.5756 133.754 75.2423 133.007 74.9223L128.647 72.8823C127.421 72.3223 126.514 71.6423 125.927 70.8423C125.367 70.0423 125.087 69.0023 125.087 67.7223C125.087 65.8823 125.687 64.5089 126.887 63.6023C128.087 62.6689 129.941 62.2023 132.447 62.2023C135.087 62.2023 137.021 62.6956 138.247 63.6823C139.474 64.6423 140.087 66.0689 140.087 67.9623C140.087 68.2823 139.914 68.4423 139.567 68.4423H135.527C135.181 68.4423 135.007 68.2423 135.007 67.8423C135.034 67.2823 134.847 66.8556 134.447 66.5623C134.047 66.2423 133.474 66.0823 132.727 66.0823C131.954 66.0823 131.381 66.2156 131.007 66.4823C130.661 66.7489 130.487 67.1489 130.487 67.6823C130.487 68.1356 130.621 68.4956 130.887 68.7623C131.154 69.0289 131.647 69.3356 132.367 69.6823L136.687 71.6023C138.021 72.1889 138.981 72.8956 139.567 73.7223C140.154 74.5223 140.447 75.6023 140.447 76.9623C140.447 78.9089 139.781 80.3889 138.447 81.4023C137.114 82.3889 135.114 82.8823 132.447 82.8823ZM152.009 82.8823C150.409 82.8823 149.129 82.6423 148.169 82.1623C147.209 81.6823 146.515 80.9223 146.089 79.8823C145.662 78.8423 145.449 77.4689 145.449 75.7623V67.1623H142.729C142.382 67.1623 142.209 67.0023 142.209 66.6823V63.1623C142.209 62.8156 142.382 62.6423 142.729 62.6423H145.609L146.209 57.8823C146.235 57.5356 146.395 57.3623 146.689 57.3623H150.369C150.662 57.3623 150.809 57.5356 150.809 57.8823L150.849 62.6423H155.809C156.129 62.6423 156.289 62.8156 156.289 63.1623V66.6823C156.289 67.0023 156.129 67.1623 155.809 67.1623H150.849V75.4023C150.849 76.3889 151.022 77.1089 151.369 77.5623C151.742 78.0156 152.342 78.2423 153.169 78.2423C153.595 78.2423 154.022 78.2023 154.449 78.1223C154.902 78.0423 155.355 77.9089 155.809 77.7223C156.182 77.5889 156.369 77.7223 156.369 78.1223V81.6823C156.369 81.9489 156.235 82.1356 155.969 82.2423C155.435 82.4556 154.822 82.6156 154.129 82.7223C153.435 82.8289 152.729 82.8823 152.009 82.8823Z"/>
</mask>
<path d="M106.186 82.4423C105.839 82.4423 105.666 82.2823 105.666 81.9623V78.2823C105.666 77.9356 105.839 77.7623 106.186 77.7623H111.866V61.8823L106.466 63.6023C106.092 63.7089 105.906 63.5756 105.906 63.2023V59.6023C105.906 59.3089 106.039 59.1223 106.306 59.0423L115.066 56.1623C115.279 56.0823 115.492 56.0423 115.706 56.0423H116.786C117.106 56.0423 117.266 56.2023 117.266 56.5223V77.7623H122.466C122.786 77.7623 122.946 77.9356 122.946 78.2823V81.9623C122.946 82.2823 122.786 82.4423 122.466 82.4423H106.186ZM132.447 82.8823C129.754 82.8823 127.794 82.3756 126.567 81.3623C125.367 80.3223 124.847 78.7089 125.007 76.5223C125.034 76.1756 125.207 76.0023 125.527 76.0023H129.567C129.887 76.0023 130.034 76.1756 130.007 76.5223C130.007 77.3756 130.207 78.0156 130.607 78.4423C131.034 78.8423 131.661 79.0423 132.487 79.0423C133.367 79.0423 134.007 78.8956 134.407 78.6023C134.834 78.2823 135.047 77.8023 135.047 77.1623C135.047 76.6556 134.887 76.2423 134.567 75.9223C134.274 75.5756 133.754 75.2423 133.007 74.9223L128.647 72.8823C127.421 72.3223 126.514 71.6423 125.927 70.8423C125.367 70.0423 125.087 69.0023 125.087 67.7223C125.087 65.8823 125.687 64.5089 126.887 63.6023C128.087 62.6689 129.941 62.2023 132.447 62.2023C135.087 62.2023 137.021 62.6956 138.247 63.6823C139.474 64.6423 140.087 66.0689 140.087 67.9623C140.087 68.2823 139.914 68.4423 139.567 68.4423H135.527C135.181 68.4423 135.007 68.2423 135.007 67.8423C135.034 67.2823 134.847 66.8556 134.447 66.5623C134.047 66.2423 133.474 66.0823 132.727 66.0823C131.954 66.0823 131.381 66.2156 131.007 66.4823C130.661 66.7489 130.487 67.1489 130.487 67.6823C130.487 68.1356 130.621 68.4956 130.887 68.7623C131.154 69.0289 131.647 69.3356 132.367 69.6823L136.687 71.6023C138.021 72.1889 138.981 72.8956 139.567 73.7223C140.154 74.5223 140.447 75.6023 140.447 76.9623C140.447 78.9089 139.781 80.3889 138.447 81.4023C137.114 82.3889 135.114 82.8823 132.447 82.8823ZM152.009 82.8823C150.409 82.8823 149.129 82.6423 148.169 82.1623C147.209 81.6823 146.515 80.9223 146.089 79.8823C145.662 78.8423 145.449 77.4689 145.449 75.7623V67.1623H142.729C142.382 67.1623 142.209 67.0023 142.209 66.6823V63.1623C142.209 62.8156 142.382 62.6423 142.729 62.6423H145.609L146.209 57.8823C146.235 57.5356 146.395 57.3623 146.689 57.3623H150.369C150.662 57.3623 150.809 57.5356 150.809 57.8823L150.849 62.6423H155.809C156.129 62.6423 156.289 62.8156 156.289 63.1623V66.6823C156.289 67.0023 156.129 67.1623 155.809 67.1623H150.849V75.4023C150.849 76.3889 151.022 77.1089 151.369 77.5623C151.742 78.0156 152.342 78.2423 153.169 78.2423C153.595 78.2423 154.022 78.2023 154.449 78.1223C154.902 78.0423 155.355 77.9089 155.809 77.7223C156.182 77.5889 156.369 77.7223 156.369 78.1223V81.6823C156.369 81.9489 156.235 82.1356 155.969 82.2423C155.435 82.4556 154.822 82.6156 154.129 82.7223C153.435 82.8289 152.729 82.8823 152.009 82.8823Z" fill="#151F34"/>
<path d="M111.866 77.7623V80.7623H114.866V77.7623H111.866ZM111.866 61.8823H114.866V57.7782L110.955 59.0238L111.866 61.8823ZM106.466 63.6023L107.29 66.4868L107.333 66.4744L107.376 66.4608L106.466 63.6023ZM106.306 59.0423L107.168 61.9157L107.205 61.9045L107.243 61.8922L106.306 59.0423ZM115.066 56.1623L116.003 59.0122L116.061 58.9929L116.119 58.9712L115.066 56.1623ZM117.266 77.7623H114.266V80.7623H117.266V77.7623ZM106.186 79.4423C106.418 79.4423 107.151 79.4908 107.831 80.1179C108.555 80.7868 108.666 81.5954 108.666 81.9623H102.666C102.666 82.6491 102.863 83.6978 103.761 84.5267C104.613 85.3137 105.607 85.4423 106.186 85.4423V79.4423ZM108.666 81.9623V78.2823H102.666V81.9623H108.666ZM108.666 78.2823C108.666 78.5714 108.591 79.3392 107.917 80.0136C107.243 80.688 106.475 80.7623 106.186 80.7623V74.7623C105.55 74.7623 104.522 74.9232 103.674 75.7709C102.827 76.6186 102.666 77.6465 102.666 78.2823H108.666ZM106.186 80.7623H111.866V74.7623H106.186V80.7623ZM114.866 77.7623V61.8823H108.866V77.7623H114.866ZM110.955 59.0238L105.555 60.7438L107.376 66.4608L112.776 64.7408L110.955 59.0238ZM105.642 60.7177C105.741 60.6893 106.751 60.3995 107.789 61.1411C108.878 61.9185 108.906 63.0341 108.906 63.2023H102.906C102.906 63.7438 103.027 65.1127 104.302 66.0235C105.527 66.8983 106.817 66.6219 107.29 66.4868L105.642 60.7177ZM108.906 63.2023V59.6023H102.906V63.2023H108.906ZM108.906 59.6023C108.906 59.9063 108.833 60.4448 108.447 60.986C108.05 61.5419 107.531 61.8066 107.168 61.9157L105.444 56.1688C104.813 56.3579 104.095 56.756 103.565 57.4985C103.045 58.2264 102.906 59.0049 102.906 59.6023H108.906ZM107.243 61.8922L116.003 59.0122L114.129 53.3123L105.369 56.1923L107.243 61.8922ZM116.119 58.9712C116.019 59.0089 115.876 59.0423 115.706 59.0423V53.0423C115.109 53.0423 114.539 53.1556 114.012 53.3533L116.119 58.9712ZM115.706 59.0423H116.786V53.0423H115.706V59.0423ZM116.786 59.0423C116.483 59.0423 115.705 58.9646 115.024 58.2836C114.343 57.6025 114.266 56.8247 114.266 56.5223H120.266C120.266 55.8998 120.108 54.882 119.267 54.0409C118.426 53.1999 117.408 53.0423 116.786 53.0423V59.0423ZM114.266 56.5223V77.7623H120.266V56.5223H114.266ZM117.266 80.7623H122.466V74.7623H117.266V80.7623ZM122.466 80.7623C122.099 80.7623 121.29 80.6517 120.621 79.9271C119.994 79.2478 119.946 78.5144 119.946 78.2823H125.946C125.946 77.7034 125.817 76.71 125.03 75.8574C124.201 74.9594 123.153 74.7623 122.466 74.7623V80.7623ZM119.946 78.2823V81.9623H125.946V78.2823H119.946ZM119.946 81.9623C119.946 81.6598 120.023 80.882 120.704 80.2009C121.385 79.5199 122.163 79.4423 122.466 79.4423V85.4423C123.088 85.4423 124.106 85.2846 124.947 84.4436C125.788 83.6025 125.946 82.5847 125.946 81.9623H119.946ZM122.466 79.4423H106.186V85.4423H122.466V79.4423ZM126.567 81.3623L124.602 83.6293L124.629 83.6526L124.657 83.6751L126.567 81.3623ZM125.007 76.5223L122.016 76.2922L122.015 76.3033L125.007 76.5223ZM130.007 76.5223L127.016 76.2922L127.007 76.407V76.5223H130.007ZM130.607 78.4423L128.419 80.4941L128.485 80.5647L128.555 80.6309L130.607 78.4423ZM134.407 78.6023L136.181 81.0215L136.194 81.0119L136.207 81.0023L134.407 78.6023ZM134.567 75.9223L132.277 77.8601L132.358 77.9553L132.446 78.0436L134.567 75.9223ZM133.007 74.9223L131.736 77.6395L131.78 77.6603L131.826 77.6797L133.007 74.9223ZM128.647 72.8823L129.919 70.165L129.906 70.159L129.893 70.1532L128.647 72.8823ZM125.927 70.8423L123.47 72.5626L123.489 72.5897L123.508 72.6164L125.927 70.8423ZM126.887 63.6023L128.696 65.9959L128.713 65.9832L128.729 65.9703L126.887 63.6023ZM138.247 63.6823L136.367 66.0199L136.383 66.0324L136.398 66.0448L138.247 63.6823ZM135.007 67.8423L132.011 67.6996L132.007 67.7709V67.8423H135.007ZM134.447 66.5623L132.573 68.9049L132.622 68.9442L132.673 68.9815L134.447 66.5623ZM131.007 66.4823L129.264 64.0411L129.22 64.072L129.178 64.1044L131.007 66.4823ZM130.887 68.7623L128.766 70.8836L128.766 70.8836L130.887 68.7623ZM132.367 69.6823L131.066 72.3853L131.107 72.4051L131.149 72.4237L132.367 69.6823ZM136.687 71.6023L135.469 74.3437L135.479 74.3482L136.687 71.6023ZM139.567 73.7223L137.121 75.4585L137.134 75.4775L137.148 75.4964L139.567 73.7223ZM138.447 81.4023L140.232 83.8138L140.247 83.8024L140.263 83.7907L138.447 81.4023ZM132.447 79.8823C130.009 79.8823 128.904 79.4012 128.478 79.0494L124.657 83.6751C126.684 85.35 129.498 85.8823 132.447 85.8823V79.8823ZM128.532 79.0952C128.296 78.8909 127.88 78.3688 127.999 76.7412L122.015 76.3033C121.814 79.0491 122.438 81.7536 124.602 83.6293L128.532 79.0952ZM127.998 76.7523C127.98 76.998 127.874 77.6579 127.279 78.2536C126.646 78.8862 125.91 79.0023 125.527 79.0023V73.0023C124.825 73.0023 123.842 73.205 123.036 74.0109C122.267 74.78 122.062 75.6999 122.016 76.2922L127.998 76.7523ZM125.527 79.0023H129.567V73.0023H125.527V79.0023ZM129.567 79.0023C129.221 79.0023 128.329 78.8991 127.627 78.0701C126.976 77.3008 127 76.4967 127.016 76.2922L132.998 76.7523C133.041 76.2011 133.005 75.1371 132.207 74.1944C131.359 73.1921 130.234 73.0023 129.567 73.0023V79.0023ZM127.007 76.5223C127.007 77.7916 127.301 79.3019 128.419 80.4941L132.796 76.3904C132.868 76.4676 132.922 76.5444 132.959 76.6115C132.997 76.6774 133.014 76.7262 133.021 76.7474C133.032 76.7835 133.007 76.724 133.007 76.5223H127.007ZM128.555 80.6309C129.732 81.734 131.214 82.0423 132.487 82.0423V76.0423C132.308 76.0423 132.263 76.0196 132.309 76.0343C132.335 76.0425 132.385 76.0612 132.45 76.098C132.515 76.1354 132.588 76.1867 132.659 76.2536L128.555 80.6309ZM132.487 82.0423C133.569 82.0423 135.001 81.887 136.181 81.0215L132.633 76.183C132.745 76.1013 132.838 76.0553 132.893 76.0319C132.948 76.0087 132.973 76.0044 132.957 76.0081C132.941 76.0117 132.896 76.0208 132.814 76.0286C132.733 76.0365 132.625 76.0423 132.487 76.0423V82.0423ZM136.207 81.0023C137.544 79.9994 138.047 78.5342 138.047 77.1623H132.047C132.047 77.1521 132.049 77.0016 132.146 76.7838C132.25 76.5487 132.418 76.3444 132.607 76.2023L136.207 81.0023ZM138.047 77.1623C138.047 75.964 137.641 74.7531 136.689 73.8009L132.446 78.0436C132.317 77.9147 132.204 77.7463 132.13 77.5552C132.058 77.3707 132.047 77.2269 132.047 77.1623H138.047ZM136.857 73.9844C136.111 73.1027 135.077 72.5452 134.189 72.1648L131.826 77.6797C132.091 77.7936 132.253 77.8832 132.338 77.9379C132.431 77.9971 132.379 77.9805 132.277 77.8601L136.857 73.9844ZM134.279 72.205L129.919 70.165L127.376 75.5995L131.736 77.6395L134.279 72.205ZM129.893 70.1532C128.972 69.7328 128.541 69.3327 128.346 69.0682L123.508 72.6164C124.487 73.9518 125.869 74.9117 127.401 75.6113L129.893 70.1532ZM128.385 69.1219C128.273 68.9619 128.087 68.5763 128.087 67.7223H122.087C122.087 69.4282 122.462 71.1226 123.47 72.5626L128.385 69.1219ZM128.087 67.7223C128.087 66.5884 128.415 66.2078 128.696 65.9959L125.079 61.2087C122.959 62.8101 122.087 65.1761 122.087 67.7223H128.087ZM128.729 65.9703C129.157 65.6374 130.21 65.2023 132.447 65.2023V59.2023C129.671 59.2023 127.017 59.7004 125.045 61.2342L128.729 65.9703ZM132.447 65.2023C134.827 65.2023 135.929 65.668 136.367 66.0199L140.128 61.3446C138.112 59.7232 135.347 59.2023 132.447 59.2023V65.2023ZM136.398 66.0448C136.741 66.3127 137.087 66.7707 137.087 67.9623H143.087C143.087 65.3672 142.207 62.9719 140.096 61.3197L136.398 66.0448ZM137.087 67.9623C137.087 67.5954 137.198 66.7868 137.922 66.1179C138.602 65.4908 139.335 65.4423 139.567 65.4423V71.4423C140.146 71.4423 141.14 71.3137 141.992 70.5267C142.89 69.6978 143.087 68.6491 143.087 67.9623H137.087ZM139.567 65.4423H135.527V71.4423H139.567V65.4423ZM135.527 65.4423C135.937 65.4423 136.757 65.5804 137.404 66.3275C137.981 66.9924 138.007 67.6767 138.007 67.8423H132.007C132.007 68.4078 132.121 69.3921 132.87 70.2571C133.691 71.2041 134.771 71.4423 135.527 71.4423V65.4423ZM138.004 67.985C138.071 66.5734 137.549 65.1168 136.221 64.143L132.673 68.9815C132.476 68.8366 132.271 68.6074 132.139 68.3047C132.013 68.017 132.006 67.7881 132.011 67.6996L138.004 67.985ZM136.321 64.2197C135.194 63.3176 133.853 63.0823 132.727 63.0823V69.0823C132.894 69.0823 132.943 69.1009 132.911 69.0918C132.871 69.0807 132.736 69.0347 132.573 68.9049L136.321 64.2197ZM132.727 63.0823C131.715 63.0823 130.389 63.2373 129.264 64.0411L132.751 68.9235C132.645 68.9993 132.553 69.0449 132.492 69.0707C132.432 69.0962 132.397 69.1043 132.397 69.1043C132.397 69.1043 132.423 69.0984 132.48 69.0927C132.538 69.087 132.619 69.0823 132.727 69.0823V63.0823ZM129.178 64.1044C127.93 65.0646 127.487 66.445 127.487 67.6823H133.487C133.487 67.7366 133.479 67.9244 133.37 68.1751C133.254 68.4436 133.065 68.6842 132.836 68.8601L129.178 64.1044ZM127.487 67.6823C127.487 68.7592 127.826 69.9433 128.766 70.8836L133.009 66.6409C133.187 66.819 133.32 67.0324 133.401 67.2503C133.477 67.4581 133.487 67.6162 133.487 67.6823H127.487ZM128.766 70.8836C129.415 71.5322 130.304 72.0185 131.066 72.3853L133.669 66.9793C133.372 66.8366 133.17 66.7244 133.041 66.6444C132.978 66.6054 132.946 66.5819 132.936 66.5748C132.925 66.5663 132.955 66.5876 133.009 66.6409L128.766 70.8836ZM131.149 72.4237L135.469 74.3437L137.906 68.8608L133.586 66.9408L131.149 72.4237ZM135.479 74.3482C136.521 74.8065 136.956 75.2266 137.121 75.4585L142.014 71.986C141.005 70.5646 139.52 69.5713 137.895 68.8563L135.479 74.3482ZM137.148 75.4964C137.24 75.6218 137.447 76.0083 137.447 76.9623H143.447C143.447 75.1963 143.068 73.4227 141.986 71.9482L137.148 75.4964ZM137.447 76.9623C137.447 78.1438 137.092 78.6645 136.632 79.0138L140.263 83.7907C142.47 82.1133 143.447 79.674 143.447 76.9623H137.447ZM136.663 78.9907C136.075 79.4256 134.832 79.8823 132.447 79.8823V85.8823C135.396 85.8823 138.153 85.3523 140.232 83.8138L136.663 78.9907ZM148.169 82.1623L149.51 79.479L149.51 79.479L148.169 82.1623ZM146.089 79.8823L148.864 78.7436L146.089 79.8823ZM145.449 67.1623H148.449V64.1623H145.449V67.1623ZM145.609 62.6423V65.6423H148.254L148.585 63.0174L145.609 62.6423ZM146.209 57.8823L149.185 58.2574L149.194 58.1851L149.2 58.1123L146.209 57.8823ZM150.809 57.8823H147.809V57.8949L147.809 57.9075L150.809 57.8823ZM150.849 62.6423L147.849 62.6675L147.874 65.6423H150.849V62.6423ZM150.849 67.1623V64.1623H147.849V67.1623H150.849ZM151.369 77.5623L148.985 79.3846L149.018 79.4276L149.053 79.4694L151.369 77.5623ZM154.449 78.1223L153.927 75.1679L153.911 75.1707L153.896 75.1736L154.449 78.1223ZM155.809 77.7223L154.8 74.897L154.732 74.921L154.666 74.9482L155.809 77.7223ZM155.969 82.2423L154.854 79.4568L154.854 79.4568L155.969 82.2423ZM154.129 82.7223L153.672 79.7571L154.129 82.7223ZM152.009 79.8823C150.665 79.8823 149.9 79.6737 149.51 79.479L146.827 84.8455C148.357 85.6108 150.153 85.8823 152.009 85.8823V79.8823ZM149.51 79.479C149.232 79.3399 149.029 79.1469 148.864 78.7436L143.313 81.0209C144.001 82.6976 145.185 84.0246 146.827 84.8455L149.51 79.479ZM148.864 78.7436C148.642 78.2021 148.449 77.2607 148.449 75.7623H142.449C142.449 77.6772 142.682 79.4824 143.313 81.0209L148.864 78.7436ZM148.449 75.7623V67.1623H142.449V75.7623H148.449ZM145.449 64.1623H142.729V70.1623H145.449V64.1623ZM142.729 64.1623C142.961 64.1623 143.694 64.2108 144.373 64.8378C145.098 65.5068 145.209 66.3154 145.209 66.6823H139.209C139.209 67.3691 139.406 68.4178 140.304 69.2467C141.156 70.0337 142.15 70.1623 142.729 70.1623V64.1623ZM145.209 66.6823V63.1623H139.209V66.6823H145.209ZM145.209 63.1623C145.209 63.4514 145.134 64.2192 144.46 64.8936C143.785 65.568 143.018 65.6423 142.729 65.6423V59.6423C142.093 59.6423 141.065 59.8032 140.217 60.6509C139.369 61.4986 139.209 62.5265 139.209 63.1623H145.209ZM142.729 65.6423H145.609V59.6423H142.729V65.6423ZM148.585 63.0174L149.185 58.2574L143.232 57.5071L142.632 62.2671L148.585 63.0174ZM149.2 58.1123C149.185 58.3048 149.103 58.931 148.553 59.5271C147.932 60.1997 147.161 60.3623 146.689 60.3623V54.3623C145.923 54.3623 144.925 54.6115 144.144 55.4574C143.434 56.2269 143.259 57.113 143.217 57.6522L149.2 58.1123ZM146.689 60.3623H150.369V54.3623H146.689V60.3623ZM150.369 60.3623C149.909 60.3623 149.062 60.2029 148.408 59.4301C147.836 58.7532 147.809 58.0604 147.809 57.8823H153.809C153.809 57.3575 153.708 56.4046 152.989 55.5544C152.188 54.6083 151.121 54.3623 150.369 54.3623V60.3623ZM147.809 57.9075L147.849 62.6675L153.848 62.6171L153.808 57.8571L147.809 57.9075ZM150.849 65.6423H155.809V59.6423H150.849V65.6423ZM155.809 65.6423C155.442 65.6423 154.633 65.5317 153.964 64.8071C153.337 64.1278 153.289 63.3944 153.289 63.1623H159.289C159.289 62.5834 159.16 61.59 158.373 60.7374C157.544 59.8394 156.495 59.6423 155.809 59.6423V65.6423ZM153.289 63.1623V66.6823H159.289V63.1623H153.289ZM153.289 66.6823C153.289 66.3798 153.366 65.602 154.047 64.9209C154.728 64.2399 155.506 64.1623 155.809 64.1623V70.1623C156.431 70.1623 157.449 70.0046 158.29 69.1636C159.131 68.3225 159.289 67.3047 159.289 66.6823H153.289ZM155.809 64.1623H150.849V70.1623H155.809V64.1623ZM147.849 67.1623V75.4023H153.849V67.1623H147.849ZM147.849 75.4023C147.849 76.6166 148.038 78.1462 148.985 79.3846L153.752 75.7399C153.896 75.9285 153.912 76.0494 153.895 75.9801C153.879 75.9115 153.849 75.732 153.849 75.4023H147.849ZM149.053 79.4694C150.201 80.8637 151.827 81.2423 153.169 81.2423V75.2423C153.018 75.2423 153.038 75.2202 153.159 75.2658C153.302 75.32 153.508 75.4409 153.684 75.6551L149.053 79.4694ZM153.169 81.2423C153.784 81.2423 154.396 81.1845 155.001 81.0709L153.896 75.1736C153.648 75.2201 153.406 75.2423 153.169 75.2423V81.2423ZM154.97 81.0766C155.649 80.9567 156.31 80.7599 156.951 80.4963L154.666 74.9482C154.4 75.0579 154.154 75.1278 153.927 75.1679L154.97 81.0766ZM156.818 80.5475C156.744 80.5736 155.631 80.9821 154.485 80.1635C153.352 79.3545 153.369 78.1858 153.369 78.1223H159.369C159.369 77.6587 159.291 76.2234 157.972 75.2811C156.639 74.3291 155.246 74.7376 154.8 74.897L156.818 80.5475ZM153.369 78.1223V81.6823H159.369V78.1223H153.369ZM153.369 81.6823C153.369 81.2952 153.474 80.7732 153.827 80.2785C154.169 79.7999 154.589 79.5631 154.854 79.4568L157.083 85.0277C157.615 84.8148 158.235 84.4313 158.71 83.766C159.196 83.0847 159.369 82.336 159.369 81.6823H153.369ZM154.854 79.4568C154.573 79.5693 154.188 79.6778 153.672 79.7571L154.585 85.6874C155.456 85.5533 156.297 85.3419 157.083 85.0277L154.854 79.4568ZM153.672 79.7571C153.134 79.84 152.58 79.8823 152.009 79.8823V85.8823C152.877 85.8823 153.736 85.8179 154.585 85.6874L153.672 79.7571Z" fill="white" mask="url(#path-7-outside-1_12285_9039)"/>
<rect x="54.8457" y="164.942" width="153" height="81.2782" rx="27.5" fill="#FFF1DE"/>
<rect x="54.8457" y="164.942" width="153" height="81.2782" rx="27.5" stroke="#7A4300" stroke-width="3"/>
<defs>
<filter id="filter0_d_12285_9039" x="12.3457" y="100.39" width="58.9551" height="129.301" filterUnits="userSpaceOnUse" color-interpolation-filters="sRGB">
<feFlood flood-opacity="0" result="BackgroundImageFix"/>
<feColorMatrix in="SourceAlpha" type="matrix" values="0 0 0 0 0 0 0 0 0 0 0 0 0 0 0 0 0 0 127 0" result="hardAlpha"/>
<feOffset dx="2" dy="2"/>
<feComposite in2="hardAlpha" operator="out"/>
<feColorMatrix type="matrix" values="0 0 0 0 1 0 0 0 0 0.407843 0 0 0 0 0.294118 0 0 0 0.18 0"/>
<feBlend mode="normal" in2="BackgroundImageFix" result="effect1_dropShadow_12285_9039"/>
<feBlend mode="normal" in="SourceGraphic" in2="effect1_dropShadow_12285_9039" result="shape"/>
</filter>
<linearGradient id="paint0_linear_12285_9039" x1="2860.07" y1="-367.723" x2="2860.07" y2="48101.2" gradientUnits="userSpaceOnUse">
<stop stop-color="#FFB950"/>
<stop offset="1" stop-color="#C3852B"/>
</linearGradient>
<linearGradient id="paint1_linear_12285_9039" x1="3044.03" y1="-367.724" x2="3044.03" y2="48101.3" gradientUnits="userSpaceOnUse">
<stop stop-color="#FFB950"/>
<stop offset="1" stop-color="#C3852B"/>
</linearGradient>
</defs>
</svg>
