<svg width="160" height="166" viewBox="0 0 160 166" fill="none" xmlns="http://www.w3.org/2000/svg">
<path opacity="0.3" fill-rule="evenodd" clip-rule="evenodd" d="M159.785 79.5C159.785 123.406 124.192 159 80.286 159C36.3781 159 0.785156 123.406 0.785156 79.5C0.785156 35.5943 36.3781 0 80.286 0C124.192 0 159.785 35.5943 159.785 79.5Z" fill="#FFD6A7"/>
<path fill-rule="evenodd" clip-rule="evenodd" d="M6.84223 87.719L9.2612 92.1422L13.6845 94.5612L9.2612 96.9802L6.84223 101.403L4.42326 96.9802L0 94.5612L4.42326 92.1422L6.84223 87.719Z" fill="#FFF5EB"/>
<path opacity="0.5" fill-rule="evenodd" clip-rule="evenodd" d="M12.0531 53.0706L12.1027 53.3334C12.6263 56.0527 13.0046 56.139 14.0617 58.2993L14.142 58.4536C14.8308 59.7068 16.5242 61.2313 17.1853 62.6797C18.3138 61.4641 20.5326 60.5217 21.5324 59.5019C23.27 57.7299 23.6271 57.8248 25.0896 55.171L25.0015 55.4465C24.2713 57.8897 24.3926 61.736 23.2145 63.9007L23.1027 64.1018C21.6351 66.6899 19.2441 68.8712 16.8788 69.2761C16.792 70.6707 16.7374 72.0677 16.7144 73.4653C17.0966 72.4863 17.5797 71.5833 18.1566 71.0073C20.8592 68.3078 24.9347 67.6698 27.7012 65.0367L27.674 65.3498C26.8671 73.6806 19.8182 77.4997 16.7587 78.2407C16.8041 79.5363 16.8768 80.8318 16.9769 82.1255L17.0271 82.7482C17.0843 83.4279 17.149 84.1071 17.2212 84.7854C17.3824 84.0442 17.5641 83.3821 17.7703 82.8342L17.8436 82.6616C18.3803 81.5271 19.8677 80.7052 21.3783 79.9551L21.8313 79.7319C22.8856 79.2152 23.9059 78.7219 24.5741 78.1694C26.9849 76.175 27.4199 76.3399 29.6021 73.2032L29.4697 73.503C28.2215 76.4676 27.873 81.333 26.1054 83.9031L25.962 84.1081C23.8855 87.0308 20.7956 89.3826 17.8888 89.7714C18.2957 92.2983 18.8065 94.8088 19.4181 97.2951C19.7812 95.4973 20.572 93.0482 21.7325 91.8895C24.5053 89.1193 28.6864 88.4653 31.5259 85.7644L31.4986 86.0788C30.6417 94.9572 22.8757 98.8442 19.9569 99.3848C20.68 102.059 21.5198 104.702 22.4731 107.304C22.6932 105.607 22.9818 104.047 23.3784 102.994L23.4479 102.832C24.2702 101.135 27.6369 100.275 29.0699 99.091C31.0868 97.4229 31.4509 97.5608 33.276 94.9368L33.1575 95.2059C32.1193 97.6878 31.8263 101.743 30.3504 103.887L30.2142 104.082C28.375 106.659 25.5947 108.702 23.0502 108.837C23.9583 111.19 24.9603 113.506 26.0533 115.779C26.3985 114.51 26.9532 113.12 27.6943 112.38C29.9384 110.138 33.3212 109.609 35.618 107.423L35.5924 107.714C34.966 114.022 30.0242 117.206 27.2463 118.172C28.2236 120.065 29.2651 121.924 30.3694 123.745C30.5302 122.677 30.7311 121.719 30.9895 121.032L31.0535 120.885C31.7237 119.544 34.3879 118.862 35.5236 117.922C37.1305 116.593 37.421 116.704 38.8751 114.613L38.7654 114.864C37.9509 116.844 37.7127 120.046 36.5442 121.744L36.4155 121.927C35.1376 123.707 33.2965 125.161 31.5074 125.574C33.416 128.561 35.4966 131.439 37.7426 134.184L37.7953 134.254C38.5191 135.278 37.0985 136.668 36.269 135.654L35.661 134.903C33.4942 132.2 31.473 129.384 29.6139 126.464C27.8038 127.595 24.9429 127.668 22.4308 126.936L22.1655 126.85C20.0334 126.083 17.6767 123.585 15.6971 122.625L15.9236 122.689C17.7591 123.2 18.3165 123.162 19.4475 123.123L19.5985 123.118C19.9078 123.108 20.2613 123.1 20.6925 123.103L20.8844 123.099C21.4748 123.07 22.1919 122.899 22.931 122.728C23.7446 122.54 24.5845 122.352 25.3147 122.352L25.4848 122.356C25.8766 122.372 26.2316 122.451 26.5271 122.622L26.7082 122.731C27.056 122.949 27.4352 123.227 27.834 123.55L27.4905 122.961L27.0127 122.121L26.6102 121.398C25.9023 120.112 25.224 118.809 24.5756 117.492C21.9962 118.4 15.0378 118.955 10.5545 113.162L10.8929 113.216C12.3592 113.422 13.8248 113.234 15.2886 113.047C16.2995 112.918 17.3104 112.788 18.3199 112.788L18.6315 112.792C19.1508 112.807 19.6701 112.859 20.1895 112.966L20.3286 112.999C21.2714 113.242 22.3589 113.974 23.2825 114.756C22.2262 112.431 21.2626 110.064 20.3937 107.663C17.8256 108.675 14.1355 107.898 11.1805 106.166C8.70435 104.715 6.5221 100.716 4.32317 98.8728L4.57597 99.018C7.28376 100.56 7.63096 100.3 10.2453 100.978L10.4241 101.02C12.4396 101.447 16.0558 100.786 17.482 102.174L17.6344 102.327C18.1473 102.855 18.7008 103.561 19.2686 104.368C18.5573 102.161 17.926 99.9293 17.3758 97.6785C14.6959 98.2521 5.47783 97.3307 1.66016 88.7272L2.07576 88.902C3.60857 89.5064 5.23707 89.7186 6.8703 89.9051L7.76108 90.0065C9.54138 90.213 11.3076 90.4682 12.9417 91.248L13.0778 91.3166C14.4837 92.0615 15.9443 93.9557 16.8638 95.4656L16.7851 95.1106L16.6178 94.3187C16.3066 92.8147 16.031 91.3036 15.7917 89.7869C12.5688 90.168 8.68624 87.8386 6.08788 84.6962C4.03138 82.208 3.27131 77.14 1.66016 74.3442L1.84952 74.5693C4.13478 77.2685 4.59737 77.1216 7.10779 78.8503L7.26601 78.9544C9.2255 80.1872 13.323 80.878 14.2958 82.9014L14.3935 83.1115C14.6836 83.757 14.9544 84.5525 15.2072 85.4409C14.9424 83.0663 14.7666 80.6816 14.6815 78.2937C11.7336 77.6952 4.17683 73.8127 3.50127 65.0367L3.82615 65.3319C6.57928 67.7219 10.4472 68.4116 13.0459 71.0073L13.1506 71.1165C13.7538 71.7726 14.2497 72.7835 14.6294 73.8445C14.6486 72.1254 14.7163 70.4068 14.8323 68.691C12.9456 67.3639 11.5657 64.6784 11.0756 61.9458C10.624 59.4277 12.076 55.6288 12.0531 53.0706Z" fill="url(#paint0_linear_12285_9030)"/>
<path opacity="0.5" fill-rule="evenodd" clip-rule="evenodd" d="M146.804 53.0706L146.807 53.3598C146.884 55.9085 148.176 59.521 147.753 61.9458L147.712 62.1717C147.203 64.8254 145.887 67.4005 144.104 68.6917C144.218 70.4035 144.285 72.1184 144.306 73.8337C144.695 72.7161 145.21 71.655 145.84 71.0073C148.465 68.3077 152.424 67.6697 155.112 65.0367L155.086 65.3498C154.281 73.9021 147.085 77.6996 144.254 78.2933C144.206 79.7142 144.125 81.1346 144.013 82.5529L143.944 83.3782C143.883 84.0669 143.815 84.7549 143.74 85.4421C144.013 84.4538 144.307 83.581 144.625 82.9013L144.71 82.7357C145.82 80.785 149.824 80.1147 151.608 78.8503C154.113 77.0748 154.519 77.2778 156.9 74.3441L156.746 74.6311C156.141 75.8079 155.657 77.3223 155.161 78.8639L154.912 79.6355C154.282 81.563 153.598 83.452 152.598 84.6961L152.439 84.8916C149.917 87.9351 146.236 90.1609 143.17 89.786C142.878 91.6921 142.53 93.5885 142.128 95.4725C143.049 93.9125 144.533 91.9395 145.941 91.2479C147.528 90.4681 149.244 90.2129 150.973 90.0064L151.839 89.9051C153.569 89.7016 155.295 89.4676 156.9 88.7271L156.78 88.9974C153.002 97.3543 144.2 98.2468 141.629 97.6776C141.095 99.9316 140.482 102.166 139.791 104.375C140.398 103.484 140.99 102.716 141.53 102.174L141.662 102.054C143.174 100.787 146.701 101.474 148.56 100.978C151.177 100.28 151.456 100.576 154.313 98.8727L154.084 99.0782C152.025 100.998 149.971 104.766 147.651 106.166L147.439 106.291C144.604 107.936 141.132 108.651 138.698 107.662C138.343 108.67 137.971 109.672 137.583 110.668L137.288 111.419C136.838 112.547 136.367 113.665 135.877 114.774C136.822 113.945 137.948 113.17 138.901 112.966C139.505 112.837 140.11 112.788 140.716 112.788L141.136 112.796C141.977 112.825 142.819 112.936 143.661 113.046L143.989 113.09C145.411 113.275 146.835 113.43 148.26 113.161L148.1 113.37C143.733 118.95 137.094 118.387 134.626 117.487C133.635 119.558 132.572 121.59 131.438 123.581C131.906 123.187 132.348 122.857 132.743 122.622C133.071 122.426 133.474 122.352 133.921 122.352L134.161 122.359C134.811 122.394 135.534 122.56 136.236 122.728L136.474 122.785C137.187 122.954 137.867 123.108 138.411 123.103L138.615 123.102C139.009 123.103 139.333 123.113 139.62 123.123L139.75 123.127C140.807 123.165 141.378 123.18 143.264 122.625L143.021 122.752C141.069 123.835 138.774 126.32 136.722 126.936L136.499 127.001C134.109 127.664 131.438 127.56 129.733 126.457C127.766 129.647 125.612 132.718 123.28 135.653L123.224 135.719C122.393 136.626 121.049 135.189 121.848 134.184L122.425 133.451C124.387 130.928 126.214 128.296 127.902 125.573C126.106 125.145 124.257 123.605 123.012 121.744C121.828 119.972 121.627 116.563 120.748 114.613L120.886 114.815C122.181 116.698 122.494 116.638 124.003 117.922L124.127 118.022C125.333 118.944 127.9 119.642 128.408 121.031L128.476 121.23C128.695 121.897 128.868 122.772 129.009 123.738C129.553 122.818 130.08 121.887 130.591 120.947L130.89 120.394C131.284 119.658 131.667 118.917 132.042 118.171C129.302 117.19 124.398 113.923 123.911 107.423L124.208 107.699C126.427 109.658 129.525 110.235 131.61 112.379L131.704 112.482C132.376 113.242 132.882 114.563 133.202 115.773C134.263 113.501 135.235 111.186 136.115 108.836C133.582 108.694 130.811 106.554 129.029 103.887C127.543 101.663 127.291 97.3847 126.187 94.9367L126.345 95.1677C127.984 97.554 128.373 97.4734 130.274 99.0909L130.41 99.201C131.914 100.366 135.162 101.243 135.803 102.994L135.876 103.204C136.223 104.246 136.48 105.706 136.679 107.287C137.602 104.69 138.414 102.052 139.113 99.3822C136.234 98.8257 128.567 94.8518 127.888 85.7643L128.212 86.0671C130.956 88.5187 134.811 89.2257 137.4 91.8894L137.503 91.9993C138.568 93.1894 139.297 95.5211 139.642 97.2607C140.232 94.7848 140.724 92.285 141.118 89.7689C138.233 89.3636 135.166 86.9141 133.154 83.903C131.377 81.2443 131.076 76.1293 129.756 73.2032L129.92 73.4441C131.9 76.3327 132.36 76.2275 134.641 78.1693L134.786 78.2868C135.432 78.7924 136.354 79.2521 137.305 79.7319L137.746 79.955C139.286 80.7426 140.802 81.6094 141.25 82.8341L141.327 83.0522C141.491 83.5393 141.638 84.1045 141.771 84.726C141.994 82.5704 142.144 80.4057 142.221 78.2376C139.206 77.4805 132.241 73.5741 131.602 65.0367L131.918 65.3319C134.593 67.7219 138.35 68.4116 140.875 71.0073L140.977 71.1164C141.489 71.6907 141.922 72.5367 142.269 73.4502C142.249 72.0579 142.198 70.666 142.115 69.2753C139.758 68.8598 137.376 66.5756 135.962 63.9006C134.773 61.6528 134.946 57.5913 134.139 55.1709L134.266 55.4048C135.583 57.8207 135.958 57.7836 137.595 59.5018L137.717 59.6232C138.737 60.5971 140.765 61.5124 141.819 62.6794C142.487 61.1713 144.244 59.5803 144.853 58.2993C145.912 56.0715 146.27 56.0493 146.804 53.0706Z" fill="url(#paint1_linear_12285_9030)"/>
<path d="M80.2899 128.014C107.271 128.014 129.143 106.14 129.143 79.1593C129.143 52.1784 107.271 30.3049 80.2899 30.3049C53.3079 30.3049 31.4355 52.1784 31.4355 79.1593C31.4355 106.14 53.3079 128.014 80.2899 128.014Z" fill="#F1BA7A" stroke="#7A4300" stroke-width="3"/>
<circle cx="80.2516" cy="79.1211" r="31.3669" fill="white"/>
<path d="M42.2266 106.442C27.0387 106.442 14.7266 118.754 14.7266 133.942V136.942C14.7266 152.13 27.0387 164.442 42.2266 164.442H120.227C135.414 164.442 147.727 152.13 147.727 136.942V133.942C147.727 118.754 135.414 106.442 120.227 106.442H42.2266Z" fill="#FFF1DE"/>
<path d="M42.2266 106.442C27.0387 106.442 14.7266 118.754 14.7266 133.942V136.942C14.7266 152.13 27.0387 164.442 42.2266 164.442H120.227C135.414 164.442 147.727 152.13 147.727 136.942V133.942C147.727 118.754 135.414 106.442 120.227 106.442H42.2266Z" stroke="#7A4300" stroke-width="3"/>
<mask id="path-8-outside-1_12285_9030" maskUnits="userSpaceOnUse" x="46.2266" y="17.9423" width="67" height="35" fill="black">
<rect fill="white" x="46.2266" y="17.9423" width="67" height="35"/>
<path d="M50.5466 48.9423C50.2266 48.9423 50.0666 48.7823 50.0666 48.4623V45.1423C50.0666 43.8623 50.2799 42.7289 50.7066 41.7423C51.1599 40.7556 51.7466 39.8756 52.4666 39.1023C53.2132 38.3289 54.0132 37.6356 54.8666 37.0223C55.7466 36.3823 56.6132 35.7956 57.4666 35.2623C58.3466 34.7023 59.1466 34.1556 59.8666 33.6223C60.6132 33.0623 61.1999 32.4889 61.6266 31.9023C62.0799 31.3156 62.3066 30.6489 62.3066 29.9023V29.3423C62.3066 28.5156 62.0399 27.9023 61.5066 27.5023C60.9732 27.1023 60.1332 26.9023 58.9866 26.9023C57.8399 26.9023 56.9866 27.1556 56.4266 27.6623C55.8932 28.1689 55.6399 28.9023 55.6666 29.8623C55.6666 30.1823 55.5066 30.3423 55.1866 30.3423H51.0266C50.7332 30.3423 50.5732 30.1823 50.5466 29.8623C50.4666 28.2089 50.7599 26.8223 51.4266 25.7023C52.1199 24.5556 53.1332 23.7023 54.4666 23.1423C55.7999 22.5823 57.3999 22.3023 59.2666 22.3023C62.0666 22.3023 64.1732 22.8889 65.5866 24.0623C67.0266 25.2089 67.7466 26.9556 67.7466 29.3023C67.7466 30.5823 67.5332 31.7023 67.1066 32.6623C66.6799 33.5956 66.1199 34.4223 65.4266 35.1423C64.7332 35.8623 63.9732 36.5156 63.1466 37.1023C62.3199 37.6623 61.4799 38.2089 60.6266 38.7423C59.7999 39.2489 59.0399 39.7689 58.3466 40.3023C57.6532 40.8356 57.0932 41.4223 56.6666 42.0623C56.2399 42.7023 56.0266 43.4356 56.0266 44.2623H67.1466C67.4666 44.2623 67.6266 44.4356 67.6266 44.7823V48.4623C67.6266 48.7823 67.4666 48.9423 67.1466 48.9423H50.5466ZM83.8356 48.9423C83.5156 48.9423 83.3556 48.7823 83.3556 48.4623V36.1423C83.3556 35.1823 83.169 34.4889 82.7956 34.0623C82.449 33.6089 81.8756 33.3823 81.0756 33.3823C80.3023 33.3823 79.529 33.6223 78.7556 34.1023C78.009 34.5556 77.2356 35.1956 76.4356 36.0223L75.9956 32.6623C76.6623 31.9156 77.3556 31.2489 78.0756 30.6623C78.8223 30.0756 79.6223 29.6089 80.4756 29.2623C81.3556 28.8889 82.3156 28.7023 83.3556 28.7023C85.169 28.7023 86.5156 29.2223 87.3956 30.2623C88.3023 31.3023 88.7556 32.9023 88.7556 35.0623V48.4623C88.7556 48.7823 88.5956 48.9423 88.2756 48.9423H83.8356ZM72.1556 48.9423C71.809 48.9423 71.6356 48.7823 71.6356 48.4623V34.2223C71.6356 33.4223 71.609 32.6223 71.5556 31.8223C71.529 31.0223 71.489 30.3156 71.4356 29.7023C71.3823 29.3289 71.5423 29.1423 71.9156 29.1423H75.7556C76.0223 29.1423 76.1956 29.2889 76.2756 29.5823C76.3556 30.0089 76.4223 30.5423 76.4756 31.1823C76.5556 31.8223 76.609 32.4089 76.6356 32.9423L77.0356 34.7823V48.4623C77.0356 48.7823 76.8756 48.9423 76.5556 48.9423H72.1556ZM98.0428 49.3823C96.2561 49.3823 94.9095 48.8489 94.0028 47.7823C93.0961 46.7156 92.6428 45.0623 92.6428 42.8223V36.4223C92.6428 33.7556 93.2161 31.8089 94.3628 30.5823C95.5361 29.3289 97.1628 28.7023 99.2428 28.7023C100.149 28.7023 101.109 28.8223 102.123 29.0623C103.163 29.3023 104.043 29.6356 104.763 30.0623L104.883 34.1823C104.216 33.8089 103.536 33.5423 102.843 33.3823C102.176 33.2223 101.563 33.1423 101.003 33.1423C100.016 33.1423 99.2695 33.4623 98.7628 34.1023C98.2828 34.7156 98.0428 35.6356 98.0428 36.8623V41.8623C98.0428 42.8223 98.2295 43.5423 98.6028 44.0223C98.9761 44.4756 99.5628 44.7023 100.363 44.7023C101.136 44.7023 101.883 44.4756 102.603 44.0223C103.349 43.5423 104.136 42.8756 104.963 42.0223L105.363 45.4223C104.696 46.1423 104.003 46.8089 103.283 47.4223C102.563 48.0089 101.763 48.4889 100.883 48.8623C100.029 49.2089 99.0828 49.3823 98.0428 49.3823ZM105.603 48.9423C105.309 48.9423 105.136 48.7956 105.083 48.5023C105.003 48.0489 104.923 47.5289 104.843 46.9423C104.789 46.3556 104.763 45.8223 104.763 45.3423L104.283 43.3423V22.1023C104.283 21.7823 104.443 21.6223 104.763 21.6223H109.163C109.509 21.6223 109.683 21.7823 109.683 22.1023V43.9823C109.683 44.7556 109.696 45.5289 109.723 46.3023C109.776 47.0756 109.829 47.7556 109.883 48.3423C109.936 48.7423 109.776 48.9423 109.403 48.9423H105.603Z"/>
</mask>
<path d="M50.5466 48.9423C50.2266 48.9423 50.0666 48.7823 50.0666 48.4623V45.1423C50.0666 43.8623 50.2799 42.7289 50.7066 41.7423C51.1599 40.7556 51.7466 39.8756 52.4666 39.1023C53.2132 38.3289 54.0132 37.6356 54.8666 37.0223C55.7466 36.3823 56.6132 35.7956 57.4666 35.2623C58.3466 34.7023 59.1466 34.1556 59.8666 33.6223C60.6132 33.0623 61.1999 32.4889 61.6266 31.9023C62.0799 31.3156 62.3066 30.6489 62.3066 29.9023V29.3423C62.3066 28.5156 62.0399 27.9023 61.5066 27.5023C60.9732 27.1023 60.1332 26.9023 58.9866 26.9023C57.8399 26.9023 56.9866 27.1556 56.4266 27.6623C55.8932 28.1689 55.6399 28.9023 55.6666 29.8623C55.6666 30.1823 55.5066 30.3423 55.1866 30.3423H51.0266C50.7332 30.3423 50.5732 30.1823 50.5466 29.8623C50.4666 28.2089 50.7599 26.8223 51.4266 25.7023C52.1199 24.5556 53.1332 23.7023 54.4666 23.1423C55.7999 22.5823 57.3999 22.3023 59.2666 22.3023C62.0666 22.3023 64.1732 22.8889 65.5866 24.0623C67.0266 25.2089 67.7466 26.9556 67.7466 29.3023C67.7466 30.5823 67.5332 31.7023 67.1066 32.6623C66.6799 33.5956 66.1199 34.4223 65.4266 35.1423C64.7332 35.8623 63.9732 36.5156 63.1466 37.1023C62.3199 37.6623 61.4799 38.2089 60.6266 38.7423C59.7999 39.2489 59.0399 39.7689 58.3466 40.3023C57.6532 40.8356 57.0932 41.4223 56.6666 42.0623C56.2399 42.7023 56.0266 43.4356 56.0266 44.2623H67.1466C67.4666 44.2623 67.6266 44.4356 67.6266 44.7823V48.4623C67.6266 48.7823 67.4666 48.9423 67.1466 48.9423H50.5466ZM83.8356 48.9423C83.5156 48.9423 83.3556 48.7823 83.3556 48.4623V36.1423C83.3556 35.1823 83.169 34.4889 82.7956 34.0623C82.449 33.6089 81.8756 33.3823 81.0756 33.3823C80.3023 33.3823 79.529 33.6223 78.7556 34.1023C78.009 34.5556 77.2356 35.1956 76.4356 36.0223L75.9956 32.6623C76.6623 31.9156 77.3556 31.2489 78.0756 30.6623C78.8223 30.0756 79.6223 29.6089 80.4756 29.2623C81.3556 28.8889 82.3156 28.7023 83.3556 28.7023C85.169 28.7023 86.5156 29.2223 87.3956 30.2623C88.3023 31.3023 88.7556 32.9023 88.7556 35.0623V48.4623C88.7556 48.7823 88.5956 48.9423 88.2756 48.9423H83.8356ZM72.1556 48.9423C71.809 48.9423 71.6356 48.7823 71.6356 48.4623V34.2223C71.6356 33.4223 71.609 32.6223 71.5556 31.8223C71.529 31.0223 71.489 30.3156 71.4356 29.7023C71.3823 29.3289 71.5423 29.1423 71.9156 29.1423H75.7556C76.0223 29.1423 76.1956 29.2889 76.2756 29.5823C76.3556 30.0089 76.4223 30.5423 76.4756 31.1823C76.5556 31.8223 76.609 32.4089 76.6356 32.9423L77.0356 34.7823V48.4623C77.0356 48.7823 76.8756 48.9423 76.5556 48.9423H72.1556ZM98.0428 49.3823C96.2561 49.3823 94.9095 48.8489 94.0028 47.7823C93.0961 46.7156 92.6428 45.0623 92.6428 42.8223V36.4223C92.6428 33.7556 93.2161 31.8089 94.3628 30.5823C95.5361 29.3289 97.1628 28.7023 99.2428 28.7023C100.149 28.7023 101.109 28.8223 102.123 29.0623C103.163 29.3023 104.043 29.6356 104.763 30.0623L104.883 34.1823C104.216 33.8089 103.536 33.5423 102.843 33.3823C102.176 33.2223 101.563 33.1423 101.003 33.1423C100.016 33.1423 99.2695 33.4623 98.7628 34.1023C98.2828 34.7156 98.0428 35.6356 98.0428 36.8623V41.8623C98.0428 42.8223 98.2295 43.5423 98.6028 44.0223C98.9761 44.4756 99.5628 44.7023 100.363 44.7023C101.136 44.7023 101.883 44.4756 102.603 44.0223C103.349 43.5423 104.136 42.8756 104.963 42.0223L105.363 45.4223C104.696 46.1423 104.003 46.8089 103.283 47.4223C102.563 48.0089 101.763 48.4889 100.883 48.8623C100.029 49.2089 99.0828 49.3823 98.0428 49.3823ZM105.603 48.9423C105.309 48.9423 105.136 48.7956 105.083 48.5023C105.003 48.0489 104.923 47.5289 104.843 46.9423C104.789 46.3556 104.763 45.8223 104.763 45.3423L104.283 43.3423V22.1023C104.283 21.7823 104.443 21.6223 104.763 21.6223H109.163C109.509 21.6223 109.683 21.7823 109.683 22.1023V43.9823C109.683 44.7556 109.696 45.5289 109.723 46.3023C109.776 47.0756 109.829 47.7556 109.883 48.3423C109.936 48.7423 109.776 48.9423 109.403 48.9423H105.603Z" fill="#151F34"/>
<path d="M50.7066 41.7423L47.9805 40.4898L47.9664 40.5205L47.953 40.5515L50.7066 41.7423ZM52.4666 39.1023L50.3084 37.0185L50.2894 37.0381L50.2709 37.058L52.4666 39.1023ZM54.8666 37.0223L56.6175 39.4583L56.6243 39.4534L56.6311 39.4485L54.8666 37.0223ZM57.4666 35.2623L59.0566 37.8063L59.0669 37.7998L59.0772 37.7932L57.4666 35.2623ZM59.8666 33.6223L61.6522 36.0329L61.6594 36.0276L61.6666 36.0223L59.8666 33.6223ZM61.6266 31.9023L59.2527 30.0679L59.226 30.1024L59.2004 30.1377L61.6266 31.9023ZM56.4266 27.6623L54.4138 25.4377L54.3868 25.4621L54.3603 25.4873L56.4266 27.6623ZM55.6666 29.8623H58.6666V29.8206L58.6654 29.779L55.6666 29.8623ZM50.5466 29.8623L47.5501 30.0073L47.5526 30.0594L47.5569 30.1114L50.5466 29.8623ZM51.4266 25.7023L48.8594 24.15L48.854 24.1589L48.8487 24.1678L51.4266 25.7023ZM54.4666 23.1423L53.3049 20.3763L53.3049 20.3763L54.4666 23.1423ZM65.5866 24.0623L63.6703 26.3705L63.6938 26.39L63.7178 26.4091L65.5866 24.0623ZM67.1066 32.6623L69.835 33.9095L69.8416 33.8951L69.848 33.8807L67.1066 32.6623ZM65.4266 35.1423L63.2656 33.0613L63.2656 33.0613L65.4266 35.1423ZM63.1466 37.1023L64.8291 39.586L64.8562 39.5677L64.8828 39.5488L63.1466 37.1023ZM60.6266 38.7423L62.1943 41.3001L62.2054 41.2932L62.2166 41.2863L60.6266 38.7423ZM58.3466 40.3023L60.1757 42.6801L60.1757 42.6801L58.3466 40.3023ZM56.0266 44.2623H53.0266V47.2623H56.0266V44.2623ZM50.5466 45.9423C50.849 45.9423 51.6268 46.0199 52.3079 46.7009C52.9889 47.382 53.0666 48.1598 53.0666 48.4623H47.0666C47.0666 49.0847 47.2242 50.1025 48.0652 50.9436C48.9063 51.7846 49.9241 51.9423 50.5466 51.9423V45.9423ZM53.0666 48.4623V45.1423H47.0666V48.4623H53.0666ZM53.0666 45.1423C53.0666 44.195 53.224 43.4791 53.4601 42.933L47.953 40.5515C47.3358 41.9787 47.0666 43.5295 47.0666 45.1423H53.0666ZM53.4326 42.9948C53.7562 42.2905 54.1661 41.6794 54.6622 41.1465L50.2709 37.058C49.327 38.0718 48.5636 39.2207 47.9805 40.4898L53.4326 42.9948ZM54.6248 41.186C55.2494 40.5391 55.9135 39.9643 56.6175 39.4583L53.1157 34.5862C52.113 35.3069 51.1771 36.1187 50.3084 37.0185L54.6248 41.186ZM56.6311 39.4485C57.4588 38.8465 58.2673 38.2995 59.0566 37.8063L55.8766 32.7183C54.9591 33.2917 54.0343 33.9181 53.102 34.5961L56.6311 39.4485ZM59.0772 37.7932C60.0075 37.2012 60.867 36.6146 61.6522 36.0329L58.0809 31.2116C57.4261 31.6966 56.6856 32.2033 55.8559 32.7313L59.0772 37.7932ZM61.6666 36.0223C62.5877 35.3314 63.4082 34.5531 64.0528 33.6668L59.2004 30.1377C58.9916 30.4248 58.6388 30.7931 58.0666 31.2223L61.6666 36.0223ZM64.0004 33.7366C64.8628 32.6206 65.3066 31.3077 65.3066 29.9023H59.3066C59.3066 29.9671 59.2976 29.9925 59.2962 29.9966C59.295 30.0003 59.2878 30.0225 59.2527 30.0679L64.0004 33.7366ZM65.3066 29.9023V29.3423H59.3066V29.9023H65.3066ZM65.3066 29.3423C65.3066 27.8234 64.7765 26.2047 63.3066 25.1023L59.7066 29.9023C59.5558 29.7892 59.4287 29.6271 59.3554 29.4584C59.2907 29.3098 59.3066 29.2461 59.3066 29.3423H65.3066ZM63.3066 25.1023C61.9966 24.1198 60.3628 23.9023 58.9866 23.9023V29.9023C59.3972 29.9023 59.6496 29.9392 59.7817 29.9707C59.9147 30.0023 59.8506 30.0103 59.7066 29.9023L63.3066 25.1023ZM58.9866 23.9023C57.4697 23.9023 55.7509 24.228 54.4138 25.4377L58.4393 29.8869C58.3322 29.9838 58.2676 29.9898 58.3404 29.9682C58.4235 29.9435 58.6237 29.9023 58.9866 29.9023V23.9023ZM54.3603 25.4873C53.0349 26.7464 52.6251 28.4099 52.6677 29.9456L58.6654 29.779C58.6598 29.5773 58.6878 29.5265 58.6721 29.5718C58.6637 29.5963 58.6456 29.6393 58.6123 29.6919C58.5786 29.745 58.5375 29.7948 58.4928 29.8373L54.3603 25.4873ZM52.6666 29.8623C52.6666 29.5598 52.7442 28.782 53.4252 28.1009C54.1063 27.4199 54.8841 27.3423 55.1866 27.3423V33.3423C55.809 33.3423 56.8268 33.1846 57.6679 32.3436C58.5089 31.5025 58.6666 30.4847 58.6666 29.8623H52.6666ZM55.1866 27.3423H51.0266V33.3423H55.1866V27.3423ZM51.0266 27.3423C51.4295 27.3423 52.1724 27.4654 52.8079 28.1009C53.4039 28.6969 53.515 29.3582 53.5362 29.6131L47.5569 30.1114C47.6048 30.6864 47.8092 31.5876 48.5652 32.3436C49.3607 33.1391 50.3303 33.3423 51.0266 33.3423V27.3423ZM53.5431 29.7173C53.4839 28.4944 53.7112 27.7293 54.0044 27.2367L48.8487 24.1678C47.8085 25.9152 47.4492 27.9234 47.5501 30.0073L53.5431 29.7173ZM53.9938 27.2545C54.3323 26.6947 54.831 26.2431 55.6283 25.9082L53.3049 20.3763C51.4355 21.1615 49.9075 22.4165 48.8594 24.15L53.9938 27.2545ZM55.6283 25.9082C56.5037 25.5405 57.6879 25.3023 59.2666 25.3023V19.3023C57.1119 19.3023 55.0961 19.624 53.3049 20.3763L55.6283 25.9082ZM59.2666 25.3023C61.7176 25.3023 63.0147 25.8263 63.6703 26.3705L67.5028 21.754C65.3317 19.9516 62.4155 19.3023 59.2666 19.3023V25.3023ZM63.7178 26.4091C64.2532 26.8355 64.7466 27.5956 64.7466 29.3023H70.7466C70.7466 26.3156 69.7999 23.5824 67.4553 21.7154L63.7178 26.4091ZM64.7466 29.3023C64.7466 30.2521 64.5883 30.9416 64.3651 31.4438L69.848 33.8807C70.4781 32.4629 70.7466 30.9124 70.7466 29.3023H64.7466ZM64.3781 31.415C64.0884 32.0487 63.7178 32.5917 63.2656 33.0613L67.5875 37.2232C68.522 36.2528 69.2714 35.1424 69.835 33.9095L64.3781 31.415ZM63.2656 33.0613C62.704 33.6446 62.0865 34.1759 61.4103 34.6557L64.8828 39.5488C65.86 38.8553 66.7625 38.0799 67.5875 37.2232L63.2656 33.0613ZM61.464 34.6185C60.6681 35.1577 59.8589 35.6843 59.0366 36.1983L62.2166 41.2863C63.1009 40.7336 63.9717 40.1668 64.8291 39.586L61.464 34.6185ZM59.0589 36.1845C58.1515 36.7406 57.3031 37.32 56.5174 37.9244L60.1757 42.6801C60.7767 42.2178 61.4483 41.7573 62.1943 41.3001L59.0589 36.1845ZM56.5174 37.9244C55.5994 38.6306 54.802 39.4508 54.1704 40.3982L59.1627 43.7264C59.3845 43.3937 59.7071 43.0406 60.1757 42.6801L56.5174 37.9244ZM54.1704 40.3982C53.3904 41.5682 53.0266 42.8897 53.0266 44.2623H59.0266C59.0266 43.9815 59.0894 43.8363 59.1627 43.7264L54.1704 40.3982ZM56.0266 47.2623H67.1466V41.2623H56.0266V47.2623ZM67.1466 47.2623C66.7797 47.2623 65.9711 47.1517 65.3022 46.4271C64.6751 45.7478 64.6266 45.0144 64.6266 44.7823H70.6266C70.6266 44.2034 70.498 43.21 69.711 42.3574C68.8821 41.4594 67.8334 41.2623 67.1466 41.2623V47.2623ZM64.6266 44.7823V48.4623H70.6266V44.7823H64.6266ZM64.6266 48.4623C64.6266 48.1598 64.7042 47.382 65.3852 46.7009C66.0663 46.0199 66.8441 45.9423 67.1466 45.9423V51.9423C67.769 51.9423 68.7868 51.7846 69.6279 50.9436C70.4689 50.1025 70.6266 49.0847 70.6266 48.4623H64.6266ZM67.1466 45.9423H50.5466V51.9423H67.1466V45.9423ZM82.7956 34.0623L80.4126 35.8846L80.4727 35.9633L80.5379 36.0378L82.7956 34.0623ZM78.7556 34.1023L80.3126 36.6666L80.3252 36.659L80.3377 36.6512L78.7556 34.1023ZM76.4356 36.0223L73.461 36.4118L74.2682 42.5758L78.5914 38.1085L76.4356 36.0223ZM75.9956 32.6623L73.7578 30.6642L72.8426 31.6893L73.021 33.0518L75.9956 32.6623ZM78.0756 30.6623L76.2222 28.3033L76.2012 28.3197L76.1806 28.3366L78.0756 30.6623ZM80.4756 29.2623L81.6048 32.0417L81.6261 32.033L81.6473 32.024L80.4756 29.2623ZM87.3956 30.2623L85.1055 32.2001L85.1198 32.217L85.1343 32.2337L87.3956 30.2623ZM71.5556 31.8223L68.5573 31.9222L68.559 31.9721L68.5623 32.0218L71.5556 31.8223ZM71.4356 29.7023L74.4243 29.4424L74.4172 29.3599L74.4055 29.278L71.4356 29.7023ZM76.2756 29.5823L79.2242 29.0294L79.2019 28.9101L79.1699 28.7929L76.2756 29.5823ZM76.4756 31.1823L73.486 31.4314L73.4911 31.493L73.4988 31.5544L76.4756 31.1823ZM76.6356 32.9423L73.6394 33.0921L73.6517 33.3385L73.7041 33.5795L76.6356 32.9423ZM77.0356 34.7823H80.0356V34.4599L79.9672 34.145L77.0356 34.7823ZM83.8356 45.9423C84.1381 45.9423 84.9159 46.0199 85.5969 46.7009C86.278 47.382 86.3556 48.1598 86.3556 48.4623H80.3556C80.3556 49.0847 80.5133 50.1025 81.3543 50.9436C82.1953 51.7846 83.2132 51.9423 83.8356 51.9423V45.9423ZM86.3556 48.4623V36.1423H80.3556V48.4623H86.3556ZM86.3556 36.1423C86.3556 34.9198 86.1413 33.3301 85.0534 32.0867L80.5379 36.0378C80.3537 35.8273 80.3137 35.6631 80.3188 35.6822C80.3207 35.6894 80.3305 35.7289 80.3396 35.8088C80.3485 35.8883 80.3556 35.998 80.3556 36.1423H86.3556ZM85.1787 32.2399C84.0598 30.7767 82.4117 30.3823 81.0756 30.3823V36.3823C81.205 36.3823 81.1545 36.4022 81.0026 36.3421C80.8248 36.2718 80.5966 36.1253 80.4126 35.8846L85.1787 32.2399ZM81.0756 30.3823C79.6507 30.3823 78.3367 30.8314 77.1735 31.5533L80.3377 36.6512C80.7212 36.4131 80.9538 36.3823 81.0756 36.3823V30.3823ZM77.1987 31.5379C76.1762 32.1587 75.2054 32.9796 74.2798 33.936L78.5914 38.1085C79.2658 37.4116 79.8417 36.9525 80.3126 36.6666L77.1987 31.5379ZM79.4102 35.6327L78.9702 32.2727L73.021 33.0518L73.461 36.4118L79.4102 35.6327ZM78.2334 34.6603C78.8027 34.0227 79.3824 33.4672 79.9706 32.988L76.1806 28.3366C75.3288 29.0306 74.5218 29.8085 73.7578 30.6642L78.2334 34.6603ZM79.9291 33.0212C80.462 32.6025 81.0193 32.2795 81.6048 32.0417L79.3465 26.4829C78.2253 26.9384 77.1825 27.5487 76.2222 28.3033L79.9291 33.0212ZM81.6473 32.024C82.1252 31.8213 82.6825 31.7023 83.3556 31.7023V25.7023C81.9487 25.7023 80.5861 25.9566 79.304 26.5005L81.6473 32.024ZM83.3556 31.7023C84.5968 31.7023 84.9694 32.0393 85.1055 32.2001L89.6858 28.3244C88.0619 26.4053 85.7411 25.7023 83.3556 25.7023V31.7023ZM85.1343 32.2337C85.3591 32.4915 85.7556 33.2367 85.7556 35.0623H91.7556C91.7556 32.5678 91.2455 30.1131 89.6569 28.2909L85.1343 32.2337ZM85.7556 35.0623V48.4623H91.7556V35.0623H85.7556ZM85.7556 48.4623C85.7556 48.1598 85.8333 47.382 86.5143 46.7009C87.1953 46.0199 87.9732 45.9423 88.2756 45.9423V51.9423C88.8981 51.9423 89.9159 51.7846 90.7569 50.9436C91.598 50.1025 91.7556 49.0847 91.7556 48.4623H85.7556ZM88.2756 45.9423H83.8356V51.9423H88.2756V45.9423ZM72.1556 45.9423C72.3878 45.9423 73.1212 45.9908 73.8005 46.6179C74.5251 47.2868 74.6356 48.0954 74.6356 48.4623H68.6356C68.6356 49.1491 68.8328 50.1978 69.7308 51.0267C70.5834 51.8137 71.5768 51.9423 72.1556 51.9423V45.9423ZM74.6356 48.4623V34.2223H68.6356V48.4623H74.6356ZM74.6356 34.2223C74.6356 33.3555 74.6067 32.489 74.549 31.6227L68.5623 32.0218C68.6112 32.7555 68.6356 33.489 68.6356 34.2223H74.6356ZM74.554 31.7223C74.526 30.8838 74.4834 30.1219 74.4243 29.4424L68.4469 29.9621C68.4945 30.5093 68.5319 31.1607 68.5573 31.9222L74.554 31.7223ZM74.4055 29.278C74.4357 29.4899 74.5183 30.3889 73.7934 31.2346C73.0611 32.089 72.1471 32.1423 71.9156 32.1423V26.1423C71.3109 26.1423 70.1302 26.2889 69.2379 27.3299C68.3529 28.3623 68.3822 29.5413 68.4658 30.1265L74.4055 29.278ZM71.9156 32.1423H75.7556V26.1423H71.9156V32.1423ZM75.7556 32.1423C75.3095 32.1423 74.6945 32.005 74.1478 31.5424C73.6378 31.1109 73.4479 30.6155 73.3813 30.3716L79.1699 28.7929C79.0234 28.2557 78.7068 27.5403 78.0235 26.9621C77.3034 26.3528 76.4684 26.1423 75.7556 26.1423V32.1423ZM73.327 30.1351C73.3816 30.4261 73.4375 30.85 73.486 31.4314L79.4653 30.9331C79.407 30.2345 79.3297 29.5917 79.2242 29.0294L73.327 30.1351ZM73.4988 31.5544C73.5714 32.1351 73.6171 32.6464 73.6394 33.0921L79.6319 32.7924C79.6008 32.1715 79.5399 31.5094 79.4525 30.8102L73.4988 31.5544ZM73.7041 33.5795L74.1041 35.4195L79.9672 34.145L79.5672 32.305L73.7041 33.5795ZM74.0356 34.7823V48.4623H80.0356V34.7823H74.0356ZM74.0356 48.4623C74.0356 48.1598 74.1133 47.382 74.7943 46.7009C75.4753 46.0199 76.2532 45.9423 76.5556 45.9423V51.9423C77.1781 51.9423 78.1959 51.7846 79.0369 50.9436C79.878 50.1025 80.0356 49.0847 80.0356 48.4623H74.0356ZM76.5556 45.9423H72.1556V51.9423H76.5556V45.9423ZM94.0028 47.7823L91.717 49.7252L94.0028 47.7823ZM94.3628 30.5823L92.1727 28.532L92.1712 28.5336L94.3628 30.5823ZM102.123 29.0623L101.431 31.9815L101.44 31.9835L101.448 31.9854L102.123 29.0623ZM104.763 30.0623L107.762 29.9749L107.713 28.3236L106.292 27.4814L104.763 30.0623ZM104.883 34.1823L103.417 36.7998L108.036 39.3862L107.882 34.0949L104.883 34.1823ZM102.843 33.3823L102.143 36.2994L102.155 36.3025L102.168 36.3054L102.843 33.3823ZM98.7628 34.1023L96.4107 32.2402L96.4055 32.2467L96.4003 32.2533L98.7628 34.1023ZM98.6028 44.0223L96.2348 45.8641L96.2604 45.8971L96.287 45.9294L98.6028 44.0223ZM102.603 44.0223L104.201 46.561L104.213 46.5534L104.225 46.5458L102.603 44.0223ZM104.963 42.0223L107.942 41.6717L107.204 35.3971L102.808 39.9349L104.963 42.0223ZM105.363 45.4223L107.564 47.4605L108.504 46.4455L108.342 45.0717L105.363 45.4223ZM103.283 47.4223L105.178 49.748L105.203 49.7273L105.228 49.706L103.283 47.4223ZM100.883 48.8623L102.012 51.6417L102.033 51.633L102.054 51.624L100.883 48.8623ZM105.083 48.5023L102.128 49.0236L102.13 49.0313L102.131 49.0389L105.083 48.5023ZM104.843 46.9423L101.855 47.2139L101.861 47.2809L101.87 47.3476L104.843 46.9423ZM104.763 45.3423H107.763V44.9873L107.68 44.6421L104.763 45.3423ZM104.283 43.3423H101.283V43.6972L101.366 44.0424L104.283 43.3423ZM109.723 46.3023L106.725 46.4056L106.726 46.4572L106.73 46.5087L109.723 46.3023ZM109.883 48.3423L106.895 48.6139L106.901 48.6765L106.909 48.7388L109.883 48.3423ZM98.0428 46.3823C96.8743 46.3823 96.4751 46.0586 96.2886 45.8393L91.717 49.7252C93.3439 51.6392 95.638 52.3823 98.0428 52.3823V46.3823ZM96.2886 45.8393C96.0494 45.5579 95.6428 44.7521 95.6428 42.8223H89.6428C89.6428 45.3724 90.1429 47.8733 91.717 49.7252L96.2886 45.8393ZM95.6428 42.8223V36.4223H89.6428V42.8223H95.6428ZM95.6428 36.4223C95.6428 34.0887 96.1597 33.0531 96.5544 32.6309L92.1712 28.5336C90.2726 30.5647 89.6428 33.4225 89.6428 36.4223H95.6428ZM96.5529 32.6325C97.0414 32.1107 97.8035 31.7023 99.2428 31.7023V25.7023C96.5222 25.7023 94.0309 26.5472 92.1727 28.532L96.5529 32.6325ZM99.2428 31.7023C99.8853 31.7023 100.612 31.7874 101.431 31.9815L102.814 26.143C101.607 25.8571 100.414 25.7023 99.2428 25.7023V31.7023ZM101.448 31.9854C102.266 32.1741 102.841 32.4103 103.233 32.6431L106.292 27.4814C105.245 26.8609 104.06 26.4304 102.797 26.1391L101.448 31.9854ZM101.764 30.1496L101.884 34.2696L107.882 34.0949L107.762 29.9749L101.764 30.1496ZM106.349 31.5647C105.452 31.0628 104.507 30.6875 103.517 30.4591L102.168 36.3054C102.565 36.397 102.98 36.5551 103.417 36.7998L106.349 31.5647ZM103.543 30.4651C102.696 30.2618 101.844 30.1423 101.003 30.1423V36.1423C101.281 36.1423 101.656 36.1827 102.143 36.2994L103.543 30.4651ZM101.003 30.1423C99.312 30.1423 97.6064 30.7298 96.4107 32.2402L101.115 35.9644C101.093 35.992 101.059 36.0281 101.012 36.0639C100.965 36.0997 100.92 36.1245 100.885 36.1397C100.813 36.1702 100.831 36.1423 101.003 36.1423V30.1423ZM96.4003 32.2533C95.3294 33.6217 95.0428 35.3264 95.0428 36.8623H101.043C101.043 36.4348 101.086 36.1629 101.126 36.0095C101.164 35.861 101.188 35.8717 101.125 35.9512L96.4003 32.2533ZM95.0428 36.8623V41.8623H101.043V36.8623H95.0428ZM95.0428 41.8623C95.0428 43.1284 95.2749 44.6299 96.2348 45.8641L100.971 42.1804C101.085 42.3266 101.1 42.4197 101.087 42.3694C101.073 42.3144 101.043 42.1576 101.043 41.8623H95.0428ZM96.287 45.9294C97.4176 47.3023 99.0101 47.7023 100.363 47.7023V41.7023C100.236 41.7023 100.273 41.6832 100.404 41.7339C100.557 41.7929 100.754 41.9153 100.919 42.1151L96.287 45.9294ZM100.363 47.7023C101.758 47.7023 103.052 47.2844 104.201 46.561L101.004 41.4836C100.713 41.6668 100.515 41.7023 100.363 41.7023V47.7023ZM104.225 46.5458C105.218 45.9076 106.181 45.0765 107.118 44.1096L102.808 39.9349C102.091 40.6747 101.481 41.177 100.981 41.4987L104.225 46.5458ZM101.983 42.3728L102.383 45.7728L108.342 45.0717L107.942 41.6717L101.983 42.3728ZM103.162 43.384C102.572 44.0205 101.964 44.6047 101.337 45.1385L105.228 49.706C106.042 49.0131 106.82 48.2641 107.564 47.4605L103.162 43.384ZM101.388 45.0966C100.894 45.4993 100.338 45.8344 99.7112 46.1005L102.054 51.624C103.187 51.1434 104.232 50.5186 105.178 49.748L101.388 45.0966ZM99.7537 46.0829C99.3023 46.2662 98.7455 46.3823 98.0428 46.3823V52.3823C99.4201 52.3823 100.757 52.1516 102.012 51.6417L99.7537 46.0829ZM105.603 45.9423C105.955 45.9423 106.594 46.037 107.191 46.5421C107.782 47.0421 107.976 47.6443 108.034 47.9656L102.131 49.0389C102.243 49.6535 102.551 50.4757 103.315 51.1224C104.085 51.7742 104.958 51.9423 105.603 51.9423V45.9423ZM108.037 47.9809C107.966 47.5752 107.891 47.0951 107.815 46.5369L101.87 47.3476C101.954 47.9627 102.04 48.5227 102.128 49.0236L108.037 47.9809ZM107.83 46.6707C107.784 46.1549 107.763 45.714 107.763 45.3423H101.763C101.763 45.9305 101.795 46.5563 101.855 47.2139L107.83 46.6707ZM107.68 44.6421L107.2 42.6421L101.366 44.0424L101.846 46.0424L107.68 44.6421ZM107.283 43.3423V22.1023H101.283V43.3423H107.283ZM107.283 22.1023C107.283 22.4047 107.205 23.1825 106.524 23.8636C105.843 24.5446 105.065 24.6223 104.763 24.6223V18.6223C104.14 18.6223 103.123 18.7799 102.281 19.6209C101.44 20.462 101.283 21.4798 101.283 22.1023H107.283ZM104.763 24.6223H109.163V18.6223H104.763V24.6223ZM109.163 24.6223C108.931 24.6223 108.197 24.5737 107.518 23.9467C106.793 23.2778 106.683 22.4691 106.683 22.1023H112.683C112.683 21.4154 112.486 20.3668 111.588 19.5379C110.735 18.7508 109.742 18.6223 109.163 18.6223V24.6223ZM106.683 22.1023V43.9823H112.683V22.1023H106.683ZM106.683 43.9823C106.683 44.7901 106.697 45.5979 106.725 46.4056L112.721 46.1989C112.696 45.46 112.683 44.7211 112.683 43.9823H106.683ZM106.73 46.5087C106.784 47.2974 106.839 48 106.895 48.6139L112.87 48.0707C112.82 47.5112 112.768 46.8538 112.716 46.0959L106.73 46.5087ZM106.909 48.7388C106.888 48.5828 106.8 47.744 107.46 46.9182C108.174 46.0263 109.11 45.9423 109.403 45.9423V51.9423C110.068 51.9423 111.272 51.7582 112.145 50.6663C112.966 49.6405 112.931 48.5017 112.856 47.9458L106.909 48.7388ZM109.403 45.9423H105.603V51.9423H109.403V45.9423Z" fill="white" mask="url(#path-8-outside-1_12285_9030)"/>
<defs>
<linearGradient id="paint0_linear_12285_9030" x1="1862.39" y1="-251.902" x2="1862.39" y2="31325.3" gradientUnits="userSpaceOnUse">
<stop stop-color="#FFB950"/>
<stop offset="1" stop-color="#C3852B"/>
</linearGradient>
<linearGradient id="paint1_linear_12285_9030" x1="1928.32" y1="-251.902" x2="1928.32" y2="31325.3" gradientUnits="userSpaceOnUse">
<stop stop-color="#FFB950"/>
<stop offset="1" stop-color="#C3852B"/>
</linearGradient>
</defs>
</svg>
