<svg xmlns="http://www.w3.org/2000/svg" width="16" height="16" viewBox="0 0 16 16" fill="none">
  <g opacity="0.5">
    <path d="M0.707652 14.1803C0.317128 13.7898 0.317128 13.1566 0.707653 12.7661L12.7667 0.707107C13.1572 0.316582 13.7904 0.316583 14.1809 0.707107L15.2929 1.81912C15.6834 2.20965 15.6834 2.84281 15.2929 3.23334L3.23388 15.2923C2.84336 15.6829 2.21019 15.6829 1.81967 15.2923L0.707652 14.1803Z" fill="currentColor"/>
    <path d="M15.2923 14.1803C15.6829 13.7898 15.6829 13.1566 15.2923 12.7661L3.23334 0.707107C2.84281 0.316582 2.20965 0.316582 1.81912 0.707107L0.707106 1.81912C0.316582 2.20965 0.316583 2.84281 0.707107 3.23334L12.7661 15.2923C13.1566 15.6829 13.7898 15.6829 14.1803 15.2923L15.2923 14.1803Z" fill="currentColor"/>
  </g>
</svg>
